<?xml version="1.0" encoding="UTF-8"?>
<svg xmlns="http://www.w3.org/2000/svg" width="521.933" height="521.933">
  <defs>
    <radialGradient id="a" cx="3.69" cy="3.318" r=".549" gradientTransform="scale(72)" gradientUnits="userSpaceOnUse">
      <stop offset="0" stop-color="#3E4095"/>
      <stop offset=".651" stop-color="#4D83B3"/>
      <stop offset="1" stop-color="#5CC6D0"/>
    </radialGradient>
    <radialGradient id="b" cx="3.396" cy="3.732" r=".44" gradientTransform="scale(72)" gradientUnits="userSpaceOnUse">
      <stop offset="0" stop-color="#F5874F"/>
      <stop offset="1" stop-color="#FFF212"/>
    </radialGradient>
    <radialGradient id="c" cx="3.941" cy="3.79" r=".449" gradientTransform="scale(72)" gradientUnits="userSpaceOnUse">
      <stop offset="0" stop-color="#ED3237"/>
      <stop offset=".8" stop-color="#F27073"/>
      <stop offset="1" stop-color="#F7ADAF"/>
    </radialGradient>
    <radialGradient id="d" cx="3.635" cy="3.635" r="2.197" gradientTransform="scale(72)" gradientUnits="userSpaceOnUse">
      <stop offset="0" stop-color="#F5874F"/>
      <stop offset="1" stop-color="#FFF212"/>
    </radialGradient>
    <radialGradient id="e" cx="3.641" cy="3.667" r="2.201" gradientTransform="scale(72)" gradientUnits="userSpaceOnUse">
      <stop offset="0" stop-color="#ED3237"/>
      <stop offset=".8" stop-color="#F27073"/>
      <stop offset="1" stop-color="#F7ADAF"/>
    </radialGradient>
    <radialGradient id="f" cx="3.64" cy="3.649" r="2.465" gradientTransform="scale(72)" gradientUnits="userSpaceOnUse">
      <stop offset="0" stop-color="#3E4095"/>
      <stop offset=".651" stop-color="#4D83B3"/>
      <stop offset="1" stop-color="#5CC6D0"/>
    </radialGradient>
    <radialGradient id="g" cx="3.621" cy="3.645" r="2.207" gradientTransform="scale(72)" gradientUnits="userSpaceOnUse">
      <stop offset="0" stop-color="#48887B"/>
      <stop offset=".651" stop-color="#24986A"/>
      <stop offset="1" stop-color="#00A859"/>
    </radialGradient>
  </defs>
  <path fill="#D2AE6D" d="M261.336 46.592c118.442 0 215.179 101.029 215.179 214.109 0 118.979-97.275 214.108-215.179 214.108-118.98 0-212.501-93.521-213.039-212.501 0-112.01 94.596-215.717 213.039-215.717zm0 28.136c-102.099 0-186.51 89.236-186.51 187.58 0 100.491 86.019 186.504 187.58 186.504 100.491 0 186.092-87.089 186.092-186.504 0-97.005-85.601-187.579-187.162-187.579v-.001zm0 115.765c38.855 0 72.348 31.084 72.348 71.816 0 38.317-33.493 71.278-72.348 71.278-39.393 0-71.284-31.885-71.284-71.278s31.891-71.816 71.284-71.816zm1.07 17.418c-29.476 0-53.86 23.045-53.86 52.79 0 31.353 24.922 53.327 53.86 53.327 29.745-.001 53.326-23.851 53.326-53.327.001-29.745-23.581-52.789-53.326-52.789v-.001zm-128.359-70.207 27.868 27.599c-1.07 2.146-1.07 4.824-1.07 13.133l-1.608.532c-8.841-15.004-19.828-25.453-32.961-32.956l7.771-8.308zM258.12 83.307v40.731c-3.485 1.608-6.701 4.824-10.455 8.842 1.608-8.309 2.146-15.542 2.146-23.582 0-8.309-.538-16.612-2.146-24.921 3.216-1.07 6.432-1.07 10.455-1.07zm-98.883 259.659c1.608 2.146 2.678 5.631 2.678 8.847l-1.07 4.818-28.406 29.213c-2.678-2.684-5.087-6.163-6.695-8.309 14.735-8.309 25.184-20.904 33.493-34.569zm-75.833-78.512h39.656c2.684 4.556 4.292 8.304 9.379 10.987-7.771-1.608-16.074-2.683-23.044-2.683-8.309 0-16.612 1.075-25.991 3.216v-11.52zm120.319 51.181-23.049 23.045c-1.608 2.678-10.45 2.678-11.52 2.678-3.216 0-6.701-3.216-6.701-6.696 0-5.899 6.701-5.899 13.397-6.432 9.115 0 19.026-9.916 25.727-16.617l2.146 4.022zm-58.151-188.381c7.233 13.127 19.828 23.577 33.494 31.885-.533 0-1.609 1.07-2.141 1.608h-4.555c-2.146 0-5.362 0-6.97 1.608l-27.599-28.406 7.771-6.695zm118.442 56.537v-33.493c4.017-9.917 6.701-12.595 12.057-12.595 2.947 0 5.093 1.07 5.093 5.093 0 4.286-6.701 9.642-9.916 14.735-2.141 4.286-2.141 15.811-2.141 26.261l-5.093-.001zm77.441 70.208c13.133 0 21.442 0 28.675-4.824 7.502-7.77 9.11-7.77 9.648-7.77 4.555 0 6.163 1.075 6.695 5.092 0 2.678-6.695 12.595-13.127 12.595h-31.891v-5.093zm-133.446-49.304-21.173-21.436c-3.479-3.216-4.555-4.824-6.163-13.133.001-4.824 1.608-8.309 6.163-8.309 1.608 0 3.754.538 5.362 2.146 1.07 1.877 1.07 2.947 1.07 11.525 0 6.695 8.847 16.612 18.226 26.529l-3.485 2.678zm-24.652 54.397h-32.429c-3.21 0-13.665-6.163-13.665-12.595.538-4.017 3.216-5.092 6.701-5.092 2.146 0 2.146 1.607 9.917 7.77 4.818 4.824 13.665 4.824 29.476 4.824v5.093zm127.283-58.683c9.379-8.847 17.688-16.617 19.296-24.921v-9.648c0-2.415 3.748-4.023 6.695-4.023 3.216 0 5.362 4.023 5.362 6.701-1.608 10.449-3.754 12.057-3.754 13.133-5.087 3.216-7.771 6.695-24.114 21.974l-3.485-3.216zm8.309 7.502 21.436-22.511c4.286-3.217 9.379-4.825 14.203-4.825 3.216 0 7.233 2.684 7.233 5.9.001 2.409-3.216 6.696-13.665 6.696-9.916.537-16.079 8.308-25.991 18.225l-3.216-3.485zm-54.935 133.446h5.093c0 16.881.532 25.19 5.356 29.745 2.684 3.216 6.701 8.04 6.701 10.186 0 2.947-2.145 4.555-5.093 4.555-6.431 0-12.057-8.309-12.057-11.525v-32.961zm0 59.759c3.485-2.146 8.309-5.361 11.525-9.917-2.683 7.771-4.291 16.618-4.291 24.658 0 7.771 1.607 16.075 3.215 24.383h-10.449v-39.124zm-61.899-189.72c-9.917-9.379-20.366-18.226-26.265-18.226-9.912 0-13.934-2.678-13.934-6.163 0-5.356 5.092-5.356 7.238-5.356 6.696 0 11.519 2.14 14.203 4.824l21.436 21.436-2.678 3.485zM379.24 396.292c-8.039-13.133-19.559-23.582-34.569-31.885l1.608-1.609h5.094c2.145 0 3.753 0 7.232-1.075l27.336 27.868-6.701 6.701zM254.098 183.791c0-13.128 0-21.437-2.678-26.26-3.754-8.842-9.917-11.52-9.917-14.735 0-4.023 6.701-5.093 6.701-5.093 4.824 0 10.986 12.594 10.986 13.127v32.96h-5.092zm62.706 136.13 20.366 20.366c3.216 2.678 5.894 7.502 5.894 11.525 0 7.502-1.608 9.911-6.432 9.911-1.872 0-6.696-3.485-6.696-8.841.001-15.811-6.7-22.512-15.811-31.353l2.679-1.608zm-106.385 2.145c-9.911 9.912-17.15 19.291-17.15 24.115 0 2.415.538 5.092.538 6.701 0 3.748-1.608 7.233-6.432 7.233-3.485 0-5.626-4.017-5.626-7.233 0-6.701 3.216-11.525 5.088-13.133l20.102-20.899 3.48 3.216zm63.512-237.69c-1.608 7.233-2.683 15.542-2.683 23.044 0 8.846 1.075 17.15 2.683 24.921-2.683-3.48-7.771-6.695-9.916-8.303V83.306c3.485 0 6.7 0 9.916 1.07zm166.31 174.611-39.564.105c-2.678-2.947-5.894-6.701-9.379-10.987 7.771 2.678 16.08 3.216 24.389 3.216 8.04 0 16.245-.799 24.554-2.408v10.074zm-356.837-9.812c7.772 1.608 15.005 2.146 22.507 2.146 7.238 0 16.617-.538 24.921-2.146-3.479 2.146-5.087 6.97-6.695 9.917H83.404v-9.917zm82.535 110.94c3.216 1.608 8.039 1.608 12.595 1.608-14.203 9.379-25.728 20.904-34.031 35.639-2.146-1.608-5.093-4.555-7.239-6.695l28.675-30.552zm92.181 40.463v39.662h-10.454c2.145-8.309 3.216-17.688 3.216-25.992 0-5.361-1.071-12.062-2.678-19.564 2.678 3.216 7.77 4.286 9.916 5.894zm0-59.221v32.961c-5.092 11.525-7.238 12.057-11.525 12.057-2.145 0-5.092-2.14-5.092-5.087 0-3.217 0-3.754 7.771-11.525 4.824-4.825 4.824-15.273 4.824-28.406h4.022zm138.271-195.346c-13.133 7.503-24.653 17.952-32.962 32.424l-.532-1.076v-3.479c0-2.147 0-5.362-1.076-8.04l27.336-27.067 7.234 7.238zm-74.764 168.015c8.841 9.11 16.612 15.811 26.529 15.811l8.573.533c3.485 0 5.092 3.216 5.092 5.899.001 4.018-3.216 5.625-6.695 5.625-6.432 0-12.063-2.145-12.063-2.145l-23.044-23.045 1.608-2.678zm62.706-179.54-26.529 25.722c-4.824 0-7.502 0-12.595.538v-1.608c13.397-8.309 23.044-18.757 31.353-31.885l7.771 7.233zM183.357 267.669c-12.595 0-24.12 1.871-28.944 5.087-5.625 4.292-8.303 8.309-11.519 8.309-2.415 0-5.093-2.409-5.093-5.093 0-6.432 6.701-11.519 11.525-11.519h34.031v3.216zm206.332 118.174-27.868-28.138c1.608-2.678 1.608-5.894 1.608-8.039v-5.093c8.309 14.74 19.828 26.529 32.961 34.569l-6.701 6.701zm-48.234-121.39H371.2c2.146 0 3.754 0 5.362 1.071l6.163 3.485c3.216 2.14 3.748 4.823 3.748 6.964 0 2.683-2.14 5.093-3.748 5.093-3.485 0-8.309-6.701-16.618-10.449-3.21-1.608-16.343-1.608-24.652-1.608v-4.556zm98.785 9.912c-7.239-1.608-14.911-2.14-22.414-2.14-8.841 0-18.22 0-26.529 2.14 5.093-3.216 8.309-6.695 9.379-8.841l39.564-.106v8.947zm-4.457-169.623c0 4.555-3.754 6.701-6.432 6.701h-3.485c-1.608-1.608-1.608-2.146-3.216-4.023l.001-2.678c0-3.216 4.554-6.432 6.7-6.432 1.608 0 6.432 1.608 6.432 6.432zM85.281 417.196c0-4.555 4.818-7.771 7.502-7.771 3.485 0 5.625 2.678 5.625 7.771 0 3.216-3.216 5.356-5.625 5.356-2.684 0-7.502-1.608-7.502-5.356zm412.67-146.579c0 3.748-3.485 6.432-6.163 6.432-4.824-1.076-6.432-2.684-6.97-6.432.538-3.485 1.608-6.163 6.97-6.163 3.216 0 6.163 1.608 6.163 6.163zM269.107 24.085c3.748 1.07 6.431 4.555 6.431 6.695 0 4.824-2.683 5.9-6.431 6.432-3.485 0-6.163-.532-6.163-6.432 0-3.479 2.677-6.695 6.163-6.695zm0 473.768c-3.485 0-6.163-2.947-6.163-6.163 0-5.362 2.677-6.701 6.163-6.701 3.748 0 6.431 1.877 6.431 6.163 0 2.146-2.683 5.362-6.431 6.701zM440.338 88.398c0 4.286-3.485 5.895-6.163 5.895-3.216 0-6.432-2.684-6.432-5.895 0-3.484 3.216-6.7 6.432-6.7s6.163 2.678 6.163 6.7zM99.478 429.253c0-4.023 3.216-7.233 5.362-7.233 3.485 0 6.163 2.14 6.163 7.233 0 3.216-2.678 5.894-6.163 5.894-2.146 0-5.362-2.678-5.362-5.894zM81.796 90.006c1.07-3.753 3.485-5.63 6.163-5.63 3.748 0 7.233 1.877 7.233 5.631 0 4.286-3.485 5.894-7.233 5.894-2.678 0-5.093-1.608-6.163-5.894v-.001zm352.379 327.19c0 3.748-4.824 5.356-6.433 5.356-2.414 0-5.625-2.14-5.625-5.356 0-3.485 2.141-6.701 6.696-6.701 1.608 0 5.362 2.146 5.362 6.701zM261.335 9.344c3.216 0 6.163 1.608 6.163 5.894.001 3.485-2.947 6.701-6.163 6.701s-6.701-4.286-6.701-6.701c0-3.211 3.485-5.894 6.701-5.894zm-84.41 347.286c-6.701 0-7.771 0-9.379-.532-1.608-3.216-1.608-6.432-1.608-9.917 4.824 0 5.894 0 12.595-1.608-1.076 4.023-1.608 8.309-1.608 12.057zM99.478 94.293c0-4.286 3.753-5.894 6.432-5.894 3.484 0 5.63 1.608 5.63 5.894 0 4.017-1.607 5.625-5.63 5.625-3.216 0-6.432-1.608-6.432-5.625zm413.208 168.015c0 3.754-2.678 6.701-5.895 6.701-3.484 0-6.695-2.947-6.695-6.701 1.07-2.678 3.211-6.163 6.695-6.163 3.217 0 5.895 3.485 5.895 6.163zM93.315 99.918c2.952 0 6.163 3.216 6.163 6.432 0 3.485-2.679 6.163-6.163 6.163-2.141 0-6.427-1.608-6.427-6.701 0-2.678 4.286-5.894 6.427-5.894zm-11.52 333.621c0-4.286 3.485-6.163 6.163-6.163 3.749 0 6.432 1.877 6.432 6.163 0 3.216-3.216 5.362-6.432 5.362s-6.163-1.608-6.163-5.362zM25.252 269.541c0-4.017 2.415-5.625 5.626-5.625 5.899 0 5.899 2.146 5.899 5.625 0 4.824-1.075 5.9-5.899 5.9-2.141 0-5.626-1.608-5.626-5.9zm227.237 226.973c-2.679 0-5.895-3.216-5.895-5.362 0-3.216 3.216-6.163 7.503-6.163 3.485 0 5.092 3.485 5.092 6.163 0 4.824-2.678 5.362-6.7 5.362zm186.24-62.975c0 3.754-2.947 5.362-6.163 5.362s-5.362-2.146-6.701-5.362c0-4.286 3.485-6.163 6.701-6.163 2.678 0 6.163 1.877 6.163 6.163zM25.79 253.999c0-4.286 2.947-6.431 5.088-6.431 3.216 0 6.431 3.754 6.431 6.969 0 3.485-4.823 5.093-6.431 5.093-3.749 0-5.088-2.146-5.088-5.631zm235.545 258.589c-3.215 0-6.7-3.21-6.7-6.163 0-3.216 3.485-5.356 6.7-5.356 3.216 0 6.164 1.608 6.164 5.356 0 3.485-2.948 6.163-6.164 6.163zm0-131.838c3.216 6.701 4.824 8.309 7.772 8.841-1.608 2.684-4.556 5.093-7.772 6.701-3.215-1.608-5.361-3.484-7.238-5.625 3.485-2.684 5.093-6.432 7.238-9.917zm7.772-246.263c-2.947 1.07-5.093 3.217-7.772 9.917-3.215-6.7-5.361-8.309-8.308-9.917 3.484-4.017 6.701-5.092 8.308-5.625 2.679 1.608 4.824 3.48 7.772 5.625zM143.964 261.238c-6.163 2.679-8.309 4.824-9.917 7.772-4.286-4.556-5.087-6.164-6.163-7.771 1.076-3.217 3.485-5.093 6.163-6.701l9.917 6.7zM252.49 25.693c4.022 0 6.7 0 6.7 5.088 0 2.683-1.608 6.432-5.092 6.432-4.287-.001-6.433-3.216-6.433-6.432 0-2.141 2.146-5.088 4.824-5.088h.001zM10.518 262.308c0-3.215 2.14-6.7 5.625-6.7 3.216 0 5.894 3.485 5.894 6.7-1.07 3.216-3.216 5.362-5.894 5.362-3.485 0-5.093-2.146-5.625-5.362zM422.651 91.61c0 5.093-3.217 7.771-5.357 7.771-3.485 0-6.163-2.678-6.163-7.771 0-3.211 2.678-3.748 6.163-3.748 2.141-.001 5.356 1.608 5.356 3.748h.001zm74.23 162.928c0 3.485-.537 6.163-5.093 6.163-3.215 0-6.431-1.608-6.431-5.093 0-3.216 3.216-6.432 6.431-6.432 2.679 0 5.093 2.146 5.093 5.362zm-117.102 7.771c6.694-3.216 8.302-6.701 9.91-8.309 2.948 1.608 5.093 7.239 6.163 8.309-1.07 1.608-3.216 4.824-6.163 6.701-1.607-1.877-3.216-4.555-9.911-6.701h.001zm-35.108-83.874c3.485-7.771 3.485-9.378 3.485-12.594h8.573c1.075 3.216 1.075 6.432 1.075 9.11-6.431 0-10.718 2.409-13.133 3.485v-.001zm3.485 179.271c0-1.608-1.07-9.11-1.877-10.987 7.239 1.07 8.847 1.071 11.525 1.071 0 2.414 0 5.63-1.076 8.841-2.14 1.075-8.572 1.075-8.572 1.075zM178.533 178.435c-4.555-1.607-8.308-2.947-12.594-2.947 0-4.824 1.07-6.969 1.07-8.577 3.216-1.07 4.824-1.07 8.308-1.07.001 4.286.533 7.502 3.216 12.595v-.001zm242.51 250.819c0 3.216-2.14 4.824-6.696 4.824-1.607 0-4.823-1.608-4.823-4.824 0-4.023 3.215-5.626 6.162-5.626 2.141 0 5.357 1.603 5.357 5.626z"/>
  <path fill="none" stroke="#D2AE6D" stroke-width=".709" d="M261.336 46.592c118.442 0 215.179 101.029 215.179 214.109 0 118.979-97.275 214.108-215.179 214.108-118.98 0-212.501-93.521-213.039-212.501 0-112.01 94.596-215.717 213.039-215.717zm0 28.136c-102.099 0-186.51 89.236-186.51 187.58 0 100.491 86.019 186.504 187.58 186.504 100.491 0 186.092-87.089 186.092-186.504 0-97.005-85.601-187.579-187.162-187.579v-.001zm0 115.765c38.855 0 72.348 31.084 72.348 71.816 0 38.317-33.493 71.278-72.348 71.278-39.393 0-71.284-31.885-71.284-71.278s31.891-71.816 71.284-71.816zm1.07 17.418c-29.476 0-53.86 23.045-53.86 52.79 0 31.353 24.922 53.327 53.86 53.327 29.745-.001 53.326-23.851 53.326-53.327.001-29.745-23.581-52.789-53.326-52.789v-.001zm-128.359-70.207 27.868 27.599c-1.07 2.146-1.07 4.824-1.07 13.133l-1.608.532c-8.841-15.004-19.828-25.453-32.961-32.956l7.771-8.308zM258.12 83.307v40.731c-3.485 1.608-6.701 4.824-10.455 8.842 1.608-8.309 2.146-15.542 2.146-23.582 0-8.309-.538-16.612-2.146-24.921 3.216-1.07 6.432-1.07 10.455-1.07zm-98.883 259.659c1.608 2.146 2.678 5.631 2.678 8.847l-1.07 4.818-28.406 29.213c-2.678-2.684-5.087-6.163-6.695-8.309 14.735-8.309 25.184-20.904 33.493-34.569zm-75.833-78.512h39.656c2.684 4.556 4.292 8.304 9.379 10.987-7.771-1.608-16.074-2.683-23.044-2.683-8.309 0-16.612 1.075-25.991 3.216v-11.52zm120.319 51.181-23.049 23.045c-1.608 2.678-10.45 2.678-11.52 2.678-3.216 0-6.701-3.216-6.701-6.696 0-5.899 6.701-5.899 13.397-6.432 9.115 0 19.026-9.916 25.727-16.617l2.146 4.022zm-58.151-188.381c7.233 13.127 19.828 23.577 33.494 31.885-.533 0-1.609 1.07-2.141 1.608h-4.555c-2.146 0-5.362 0-6.97 1.608l-27.599-28.406 7.771-6.695zm118.442 56.537v-33.493c4.017-9.917 6.701-12.595 12.057-12.595 2.947 0 5.093 1.07 5.093 5.093 0 4.286-6.701 9.642-9.916 14.735-2.141 4.286-2.141 15.811-2.141 26.261l-5.093-.001zm77.441 70.208c13.133 0 21.442 0 28.675-4.824 7.502-7.77 9.11-7.77 9.648-7.77 4.555 0 6.163 1.075 6.695 5.092 0 2.678-6.695 12.595-13.127 12.595h-31.891v-5.093zm-133.446-49.304-21.173-21.436c-3.479-3.216-4.555-4.824-6.163-13.133.001-4.824 1.608-8.309 6.163-8.309 1.608 0 3.754.538 5.362 2.146 1.07 1.877 1.07 2.947 1.07 11.525 0 6.695 8.847 16.612 18.226 26.529l-3.485 2.678zm-24.652 54.397h-32.429c-3.21 0-13.665-6.163-13.665-12.595.538-4.017 3.216-5.092 6.701-5.092 2.146 0 2.146 1.607 9.917 7.77 4.818 4.824 13.665 4.824 29.476 4.824v5.093zm127.283-58.683c9.379-8.847 17.688-16.617 19.296-24.921v-9.648c0-2.415 3.748-4.023 6.695-4.023 3.216 0 5.362 4.023 5.362 6.701-1.608 10.449-3.754 12.057-3.754 13.133-5.087 3.216-7.771 6.695-24.114 21.974l-3.485-3.216zm8.309 7.502 21.436-22.511c4.286-3.217 9.379-4.825 14.203-4.825 3.216 0 7.233 2.684 7.233 5.9.001 2.409-3.216 6.696-13.665 6.696-9.916.537-16.079 8.308-25.991 18.225l-3.216-3.485zm-54.935 133.446h5.093c0 16.881.532 25.19 5.356 29.745 2.684 3.216 6.701 8.04 6.701 10.186 0 2.947-2.145 4.555-5.093 4.555-6.431 0-12.057-8.309-12.057-11.525v-32.961zm0 59.759c3.485-2.146 8.309-5.361 11.525-9.917-2.683 7.771-4.291 16.618-4.291 24.658 0 7.771 1.607 16.075 3.215 24.383h-10.449v-39.124zm-61.899-189.72c-9.917-9.379-20.366-18.226-26.265-18.226-9.912 0-13.934-2.678-13.934-6.163 0-5.356 5.092-5.356 7.238-5.356 6.696 0 11.519 2.14 14.203 4.824l21.436 21.436-2.678 3.485zM379.24 396.292c-8.039-13.133-19.559-23.582-34.569-31.885l1.608-1.609h5.094c2.145 0 3.753 0 7.232-1.075l27.336 27.868-6.701 6.701zM254.098 183.791c0-13.128 0-21.437-2.678-26.26-3.754-8.842-9.917-11.52-9.917-14.735 0-4.023 6.701-5.093 6.701-5.093 4.824 0 10.986 12.594 10.986 13.127v32.96h-5.092zm62.706 136.13 20.366 20.366c3.216 2.678 5.894 7.502 5.894 11.525 0 7.502-1.608 9.911-6.432 9.911-1.872 0-6.696-3.485-6.696-8.841.001-15.811-6.7-22.512-15.811-31.353l2.679-1.608zm-106.385 2.145c-9.911 9.912-17.15 19.291-17.15 24.115 0 2.415.538 5.092.538 6.701 0 3.748-1.608 7.233-6.432 7.233-3.485 0-5.626-4.017-5.626-7.233 0-6.701 3.216-11.525 5.088-13.133l20.102-20.899 3.48 3.216zm63.512-237.69c-1.608 7.233-2.683 15.542-2.683 23.044 0 8.846 1.075 17.15 2.683 24.921-2.683-3.48-7.771-6.695-9.916-8.303V83.306c3.485 0 6.7 0 9.916 1.07zm166.31 174.611-39.564.105c-2.678-2.947-5.894-6.701-9.379-10.987 7.771 2.678 16.08 3.216 24.389 3.216 8.04 0 16.245-.799 24.554-2.408v10.074zm-356.837-9.812c7.772 1.608 15.005 2.146 22.507 2.146 7.238 0 16.617-.538 24.921-2.146-3.479 2.146-5.087 6.97-6.695 9.917H83.404v-9.917zm82.535 110.94c3.216 1.608 8.039 1.608 12.595 1.608-14.203 9.379-25.728 20.904-34.031 35.639-2.146-1.608-5.093-4.555-7.239-6.695l28.675-30.552zm92.181 40.463v39.662h-10.454c2.145-8.309 3.216-17.688 3.216-25.992 0-5.361-1.071-12.062-2.678-19.564 2.678 3.216 7.77 4.286 9.916 5.894zm0-59.221v32.961c-5.092 11.525-7.238 12.057-11.525 12.057-2.145 0-5.092-2.14-5.092-5.087 0-3.217 0-3.754 7.771-11.525 4.824-4.825 4.824-15.273 4.824-28.406h4.022zm138.271-195.346c-13.133 7.503-24.653 17.952-32.962 32.424l-.532-1.076v-3.479c0-2.147 0-5.362-1.076-8.04l27.336-27.067 7.234 7.238zm-74.764 168.015c8.841 9.11 16.612 15.811 26.529 15.811l8.573.533c3.485 0 5.092 3.216 5.092 5.899.001 4.018-3.216 5.625-6.695 5.625-6.432 0-12.063-2.145-12.063-2.145l-23.044-23.045 1.608-2.678zm62.706-179.54-26.529 25.722c-4.824 0-7.502 0-12.595.538v-1.608c13.397-8.309 23.044-18.757 31.353-31.885l7.771 7.233zM183.357 267.669c-12.595 0-24.12 1.871-28.944 5.087-5.625 4.292-8.303 8.309-11.519 8.309-2.415 0-5.093-2.409-5.093-5.093 0-6.432 6.701-11.519 11.525-11.519h34.031v3.216zm206.332 118.174-27.868-28.138c1.608-2.678 1.608-5.894 1.608-8.039v-5.093c8.309 14.74 19.828 26.529 32.961 34.569l-6.701 6.701zm-48.234-121.39H371.2c2.146 0 3.754 0 5.362 1.071l6.163 3.485c3.216 2.14 3.748 4.823 3.748 6.964 0 2.683-2.14 5.093-3.748 5.093-3.485 0-8.309-6.701-16.618-10.449-3.21-1.608-16.343-1.608-24.652-1.608v-4.556zm98.785 9.912c-7.239-1.608-14.911-2.14-22.414-2.14-8.841 0-18.22 0-26.529 2.14 5.093-3.216 8.309-6.695 9.379-8.841l39.564-.106v8.947zm-4.457-169.623c0 4.555-3.754 6.701-6.432 6.701h-3.485c-1.608-1.608-1.608-2.146-3.216-4.023l.001-2.678c0-3.216 4.554-6.432 6.7-6.432 1.608 0 6.432 1.608 6.432 6.432zM85.281 417.196c0-4.555 4.818-7.771 7.502-7.771 3.485 0 5.625 2.678 5.625 7.771 0 3.216-3.216 5.356-5.625 5.356-2.684 0-7.502-1.608-7.502-5.356zm412.67-146.579c0 3.748-3.485 6.432-6.163 6.432-4.824-1.076-6.432-2.684-6.97-6.432.538-3.485 1.608-6.163 6.97-6.163 3.216 0 6.163 1.608 6.163 6.163zM269.107 24.085c3.748 1.07 6.431 4.555 6.431 6.695 0 4.824-2.683 5.9-6.431 6.432-3.485 0-6.163-.532-6.163-6.432 0-3.479 2.677-6.695 6.163-6.695zm0 473.768c-3.485 0-6.163-2.947-6.163-6.163 0-5.362 2.677-6.701 6.163-6.701 3.748 0 6.431 1.877 6.431 6.163 0 2.146-2.683 5.362-6.431 6.701zM440.338 88.398c0 4.286-3.485 5.895-6.163 5.895-3.216 0-6.432-2.684-6.432-5.895 0-3.484 3.216-6.7 6.432-6.7s6.163 2.678 6.163 6.7zM99.478 429.253c0-4.023 3.216-7.233 5.362-7.233 3.485 0 6.163 2.14 6.163 7.233 0 3.216-2.678 5.894-6.163 5.894-2.146 0-5.362-2.678-5.362-5.894zM81.796 90.006c1.07-3.753 3.485-5.63 6.163-5.63 3.748 0 7.233 1.877 7.233 5.631 0 4.286-3.485 5.894-7.233 5.894-2.678 0-5.093-1.608-6.163-5.894v-.001zm352.379 327.19c0 3.748-4.824 5.356-6.433 5.356-2.414 0-5.625-2.14-5.625-5.356 0-3.485 2.141-6.701 6.696-6.701 1.608 0 5.362 2.146 5.362 6.701zM261.335 9.344c3.216 0 6.163 1.608 6.163 5.894.001 3.485-2.947 6.701-6.163 6.701s-6.701-4.286-6.701-6.701c0-3.211 3.485-5.894 6.701-5.894zm-84.41 347.286c-6.701 0-7.771 0-9.379-.532-1.608-3.216-1.608-6.432-1.608-9.917 4.824 0 5.894 0 12.595-1.608-1.076 4.023-1.608 8.309-1.608 12.057zM99.478 94.293c0-4.286 3.753-5.894 6.432-5.894 3.484 0 5.63 1.608 5.63 5.894 0 4.017-1.607 5.625-5.63 5.625-3.216 0-6.432-1.608-6.432-5.625zm413.208 168.015c0 3.754-2.678 6.701-5.895 6.701-3.484 0-6.695-2.947-6.695-6.701 1.07-2.678 3.211-6.163 6.695-6.163 3.217 0 5.895 3.485 5.895 6.163zM93.315 99.918c2.952 0 6.163 3.216 6.163 6.432 0 3.485-2.679 6.163-6.163 6.163-2.141 0-6.427-1.608-6.427-6.701 0-2.678 4.286-5.894 6.427-5.894zm-11.52 333.621c0-4.286 3.485-6.163 6.163-6.163 3.749 0 6.432 1.877 6.432 6.163 0 3.216-3.216 5.362-6.432 5.362s-6.163-1.608-6.163-5.362zM25.252 269.541c0-4.017 2.415-5.625 5.626-5.625 5.899 0 5.899 2.146 5.899 5.625 0 4.824-1.075 5.9-5.899 5.9-2.141 0-5.626-1.608-5.626-5.9zm227.237 226.973c-2.679 0-5.895-3.216-5.895-5.362 0-3.216 3.216-6.163 7.503-6.163 3.485 0 5.092 3.485 5.092 6.163 0 4.824-2.678 5.362-6.7 5.362zm186.24-62.975c0 3.754-2.947 5.362-6.163 5.362s-5.362-2.146-6.701-5.362c0-4.286 3.485-6.163 6.701-6.163 2.678 0 6.163 1.877 6.163 6.163zM25.79 253.999c0-4.286 2.947-6.431 5.088-6.431 3.216 0 6.431 3.754 6.431 6.969 0 3.485-4.823 5.093-6.431 5.093-3.749 0-5.088-2.146-5.088-5.631zm235.545 258.589c-3.215 0-6.7-3.21-6.7-6.163 0-3.216 3.485-5.356 6.7-5.356 3.216 0 6.164 1.608 6.164 5.356 0 3.485-2.948 6.163-6.164 6.163zm0-131.838c3.216 6.701 4.824 8.309 7.772 8.841-1.608 2.684-4.556 5.093-7.772 6.701-3.215-1.608-5.361-3.484-7.238-5.625 3.485-2.684 5.093-6.432 7.238-9.917zm7.772-246.263c-2.947 1.07-5.093 3.217-7.772 9.917-3.215-6.7-5.361-8.309-8.308-9.917 3.484-4.017 6.701-5.092 8.308-5.625 2.679 1.608 4.824 3.48 7.772 5.625zM143.964 261.238c-6.163 2.679-8.309 4.824-9.917 7.772-4.286-4.556-5.087-6.164-6.163-7.771 1.076-3.217 3.485-5.093 6.163-6.701l9.917 6.7zM252.49 25.693c4.022 0 6.7 0 6.7 5.088 0 2.683-1.608 6.432-5.092 6.432-4.287-.001-6.433-3.216-6.433-6.432 0-2.141 2.146-5.088 4.824-5.088h.001zM10.518 262.308c0-3.215 2.14-6.7 5.625-6.7 3.216 0 5.894 3.485 5.894 6.7-1.07 3.216-3.216 5.362-5.894 5.362-3.485 0-5.093-2.146-5.625-5.362zM422.651 91.61c0 5.093-3.217 7.771-5.357 7.771-3.485 0-6.163-2.678-6.163-7.771 0-3.211 2.678-3.748 6.163-3.748 2.141-.001 5.356 1.608 5.356 3.748h.001zm74.23 162.928c0 3.485-.537 6.163-5.093 6.163-3.215 0-6.431-1.608-6.431-5.093 0-3.216 3.216-6.432 6.431-6.432 2.679 0 5.093 2.146 5.093 5.362zm-117.102 7.771c6.694-3.216 8.302-6.701 9.91-8.309 2.948 1.608 5.093 7.239 6.163 8.309-1.07 1.608-3.216 4.824-6.163 6.701-1.607-1.877-3.216-4.555-9.911-6.701h.001zm-35.108-83.874c3.485-7.771 3.485-9.378 3.485-12.594h8.573c1.075 3.216 1.075 6.432 1.075 9.11-6.431 0-10.718 2.409-13.133 3.485v-.001zm3.485 179.271c0-1.608-1.07-9.11-1.877-10.987 7.239 1.07 8.847 1.071 11.525 1.071 0 2.414 0 5.63-1.076 8.841-2.14 1.075-8.572 1.075-8.572 1.075zM178.533 178.435c-4.555-1.607-8.308-2.947-12.594-2.947 0-4.824 1.07-6.969 1.07-8.577 3.216-1.07 4.824-1.07 8.308-1.07.001 4.286.533 7.502 3.216 12.595v-.001zm242.51 250.819c0 3.216-2.14 4.824-6.696 4.824-1.607 0-4.823-1.608-4.823-4.824 0-4.023 3.215-5.626 6.162-5.626 2.141 0 5.357 1.603 5.357 5.626z"/>
  <path fill="none" stroke="#354D9E" stroke-width=".709" d="M262.305 213.136c18.758 0 34.569 10.449 42.873 26.26-6.163-4.824-12.59-7.771-21.437-7.771-16.343 0-25.722 7.771-25.722 22.507 0 1.607 0 4.022 1.07 5.63-3.216 2.678-7.771 4.824-11.525 4.824-9.379 0-21.436-12.062-21.436-23.049.001-6.965 3.754-15.274 13.133-23.045 7.233-3.748 14.736-5.356 23.044-5.356z"/>
  <path fill="url(#a)" d="M262.305 213.136c18.758 0 34.569 10.449 42.873 26.26-6.163-4.824-12.59-7.771-21.437-7.771-16.343 0-25.722 7.771-25.722 22.507 0 1.607 0 4.022 1.07 5.63-3.216 2.678-7.771 4.824-11.525 4.824-9.379 0-21.436-12.062-21.436-23.049.001-6.965 3.754-15.274 13.133-23.045 7.233-3.748 14.736-5.356 23.044-5.356z"/>
  <path fill="url(#b)" d="M222.912 233.233c-1.608 2.947-1.608 6.164-1.608 8.304 0 13.133 12.063 29.213 25.19 29.213 6.432-.001 11.525-2.947 16.349-7.772 6.695 1.608 12.595 8.304 12.595 14.736 0 12.595-11.525 26.529-24.658 26.529-4.286-.001-9.379-.533-14.203-2.409-13.665-9.111-23.044-25.728-23.044-41.001 0-9.917 3.216-19.828 9.379-27.599v-.001z"/>
  <path fill="none" stroke="#FFF212" stroke-width=".709" d="M222.912 233.233c-1.608 2.947-1.608 6.164-1.608 8.304 0 13.133 12.063 29.213 25.19 29.213 6.432-.001 11.525-2.947 16.349-7.772 6.695 1.608 12.595 8.304 12.595 14.736 0 12.595-11.525 26.529-24.658 26.529-4.286-.001-9.379-.533-14.203-2.409-13.665-9.111-23.044-25.728-23.044-41.001 0-9.917 3.216-19.828 9.379-27.599v-.001z"/>
  <path fill="url(#c)" d="M280.526 277.713c0-8.572-7.772-17.951-16.612-20.097-1.071-1.339-1.071-2.947-1.071-3.485 0-11.519 7.771-17.419 20.898-17.419 14.741 0 23.045 5.9 26.26 24.12.001 26.798-21.435 48.234-47.696 48.234h-4.823c13.132-3.216 23.044-18.22 23.044-31.353z"/>
  <path fill="url(#d)" d="M279.397 391.2c4.824-1.608 6.432-5.356 6.432-12.057 0-4.286-10.45-11.525-12.057-17.419v-21.436c13.127-2.146 25.184-7.233 35.1-15.542 9.918 9.916 16.081 15.542 16.613 28.674 0 8.304 3.216 14.198 10.987 14.198h3.754c14.203 7.239 24.652 18.226 34.031 31.891-28.137 24.119-59.221 36.177-94.86 39.392-1.877-8.039-2.409-15.273-2.409-23.582 0-8.039.532-15.81 2.409-24.119zm-30.225-206.201c-12.594 2.14-24.114 6.696-34.031 13.665 0 0-15.273-15.273-16.343-23.044-.538-10.186 0-18.489-11.525-18.489h-4.017c-14.203-8.309-26.26-19.296-34.031-32.961 27.599-23.049 58.683-36.177 93.252-39.661 1.872 7.233 2.409 13.934 2.409 21.436 0 8.846-1.876 18.758-4.017 28.136-3.216 1.608-4.824 4.825-4.824 8.041 0 10.449 13.127 13.934 13.127 25.458v17.419z"/>
  <path fill="url(#e)" d="m122.427 373.38 3.216 4.286c-24.12-27.33-37.785-59.22-41.001-96.467 8.573-2.41 16.881-4.017 26.26-4.017 7.233 0 15.274 1.608 23.044 4.017.538 2.678 3.216 4.824 9.917 4.824 1.609-.001 5.362-1.608 13.133-8.841 3.211-3.216 14.735-3.216 26.792-3.216 1.608 12.056 6.701 23.576 13.133 33.493-6.969 8.309-13.133 15.811-19.564 15.811-13.127.538-15.005 1.608-15.542 2.409-2.678 2.684-4.286 4.292-4.286 7.508v4.017c-8.304 14.203-20.367 26.26-35.102 36.177zm317.249-130.41c-6.701 1.609-14.448 3.66-21.95 3.66-8.841 0-18.221-1.877-28.137-5.093-1.608-3.216-4.824-4.824-10.449-4.824-3.216 0-4.824 2.684-13.133 8.04-4.819 4.555-10.982 4.555-17.952 4.555h-8.308c-1.608-12.595-6.696-24.114-14.204-32.956 8.041-9.379 14.204-17.688 22.512-17.688 12.058-.537 17.952-1.607 17.952-10.185v-1.872c7.239-16.349 19.833-28.943 33.498-36.176 23.045 26.528 37.224 57.889 40.171 92.452v.087z"/>
  <path fill="none" stroke="#3E3E95" stroke-width=".709" d="m326.619 311.744-1.608-1.608c8.04-9.911 13.128-21.436 15.273-35.639 22.512 0 27.331 3.216 27.331 3.216s8.309 8.309 15.009 8.309c3.216 0 5.356-1.608 6.965-3.754 9.379-3.479 18.225-4.555 27.604-4.555 6.965 0 15.695 1.076 22.396 2.947-2.947 36.177-17.04 66.191-40.084 94.328-14.74-9.917-25.19-21.436-32.96-36.715v-1.871c0-8.04-6.965-11.525-13.665-11.525-13.133 0-19.296-5.894-26.26-13.133zm-127.821-96.468c-7.238 9.917-12.062 21.437-15.01 34.031l-11.518.538c-6.432 0-11.525-.538-15.274-5.092-7.771-6.432-9.917-8.04-13.132-8.04-5.093 0-9.379 1.608-10.987 4.824-8.842 2.683-18.221 4.555-27.067 4.555-7.502 0-14.203-1.339-21.167-2.947 3.215-35.102 15.273-65.653 37.784-92.715 15.274 8.841 26.26 20.366 34.569 34.569l.001 3.479c0 5.362 8.841 10.186 13.665 10.186 11.519 0 19.827 8.309 28.136 16.613v-.001z"/>
  <path fill="url(#f)" d="m326.619 311.744-1.608-1.608c8.04-9.911 13.128-21.436 15.273-35.639 22.512 0 27.331 3.216 27.331 3.216s8.309 8.309 15.009 8.309c3.216 0 5.356-1.608 6.965-3.754 9.379-3.479 18.225-4.555 27.604-4.555 6.965 0 15.695 1.076 22.396 2.947-2.947 36.177-17.04 66.191-40.084 94.328-14.74-9.917-25.19-21.436-32.96-36.715v-1.871c0-8.04-6.965-11.525-13.665-11.525-13.133 0-19.296-5.894-26.26-13.133zm-127.821-96.468c-7.238 9.917-12.062 21.437-15.01 34.031l-11.518.538c-6.432 0-11.525-.538-15.274-5.092-7.771-6.432-9.917-8.04-13.132-8.04-5.093 0-9.379 1.608-10.987 4.824-8.842 2.683-18.221 4.555-27.067 4.555-7.502 0-14.203-1.339-21.167-2.947 3.215-35.102 15.273-65.653 37.784-92.715 15.274 8.841 26.26 20.366 34.569 34.569l.001 3.479c0 5.362 8.841 10.186 13.665 10.186 11.519 0 19.827 8.309 28.136 16.613v-.001z"/>
  <path fill="url(#g)" d="M184.864 365.071c9.912 0 13.935-5.625 13.935-13.665 0-12.595 16.343-25.728 16.343-25.728 9.379 7.508 20.903 11.525 32.961 14.203v21.974c0 1.608-1.608 3.216-2.146 4.287-8.303 8.308-9.912 9.916-9.912 13.67.001 6.696 1.609 10.987 5.357 11.519 2.947 9.379 4.555 17.688 4.555 26.529 0 7.503-1.07 14.741-2.947 22.512-35.101-3.485-66.186-16.612-94.323-39.662 8.309-14.735 21.436-27.33 36.177-35.639zM372.708 124.17c-9.379 13.127-19.828 24.652-34.569 31.885-10.987 0-13.127 7.502-13.127 14.203 0 12.057-10.987 19.828-18.226 26.798-10.987-6.432-20.898-11.525-32.955-12.057v-17.957c0-6.701 12.057-16.08 12.057-21.436 0-6.163-1.608-9.379-5.362-10.987-3.479-8.841-4.555-17.15-4.555-26.26 0-8.31 1.076-16.618 3.485-23.851 34.569 3.485 65.652 16.612 93.252 39.662z"/>
  <path d="M261.235 517.544c6.696 0 10.987-4.824 10.987-10.987 0-3.216-1.076-3.748-1.608-4.818 5.356-.538 8.841-3.754 8.841-9.917 0-4.824-1.876-7.233-4.017-8.841 47.696-3.216 92.714-22.512 129.16-53.596 0 5.894 3.216 10.987 9.648 10.987 2.947 0 6.695-1.877 7.771-2.947 1.608 4.555 5.087 6.695 10.449 6.695 4.824 0 10.987-5.088 10.987-10.449 0-4.286-3.216-9.379-6.701-10.987.538-1.608 1.877-3.216 1.877-5.356 0-6.701-6.163-10.987-10.987-10.987 31.084-35.107 50.912-80.662 54.128-130.236 1.609 3.216 5.093 5.093 9.917 5.093 6.163 0 8.309-3.485 9.911-8.841 1.076 0 2.684.532 5.093.532 7.502 0 9.648-5.087 9.648-10.449 0-8.309-3.216-10.987-9.648-10.987-2.409 0-4.017 1.07-5.093 1.608-1.602-5.362-3.748-8.841-9.911-8.841-4.824.532-6.97 2.409-8.841 5.625-2.683-49.304-21.173-97.275-53.596-133.984h1.071c3.753 0 9.916-4.286 9.916-10.987 0-3.216-1.07-4.824-1.608-5.362 3.749-1.602 6.432-6.163 6.432-10.981 0-6.701-4.824-10.455-10.987-10.455-5.361 0-8.847 2.146-10.449 6.432-1.076-1.07-4.824-2.678-6.432-2.678-6.701 0-10.987 5.093-10.987 9.911-34.569-28.4-79.055-48.234-131.843-50.912 3.215-1.877 5.092-5.093 5.092-9.917 0-5.625-4.017-8.841-9.916-10.449 1.075 0 1.607-2.678 1.607-5.093 0-6.427-3.216-10.981-9.911-10.981-7.238-.001-10.454 4.555-10.454 10.981 0 2.415.537 5.093.537 5.631-5.361 1.07-8.841 4.286-8.841 9.911 0 4.824.533 8.04 4.017 9.917-51.181 3.216-95.666 24.12-130.23 54.128v-.532c0-5.894-3.216-10.987-10.454-10.987-1.608 0-5.895 1.07-6.432 2.947-1.603-4.555-6.163-7.771-11.52-7.771-5.092 0-9.916 4.824-9.916 11.525 0 4.286 3.216 9.373 6.7 9.911-1.339 2.678-1.876 4.286-1.876 6.432 0 6.163 5.63 10.987 10.449 10.987h1.877c-31.886 36.177-51.719 83.072-54.935 130.768-1.608-3.485-4.555-5.093-9.379-5.093-5.625 0-8.841 3.485-9.912 9.379-1.608 0-2.145-1.07-4.823-1.07-6.701 0-10.45 3.216-10.45 10.987 0 6.701 3.749 9.917 10.45 9.917 2.678 0 4.286-1.076 4.823-1.608 1.071 4.823 4.287 9.911 9.912 9.911 4.824 0 7.771-1.871 9.379-4.555 3.216 49.573 21.974 93.79 52.525 129.698-4.824 0-10.986 3.754-10.986 11.525 0 2.14 1.07 3.748 1.607 5.356-3.215 1.608-6.432 4.824-6.432 10.987.001 5.362 5.895 10.449 10.987 10.449 5.357 0 8.842-2.14 9.917-6.695 1.603 1.07 4.819 2.947 6.965 2.947 7.771 0 10.986-5.093 10.986-10.987v-.538c35.102 31.084 79.587 50.918 130.231 54.134-2.947.532-3.479 3.479-3.479 8.303 0 5.362 3.479 9.917 8.841 9.917 0 1.608-.538 3.216-.538 5.356 0 6.163 3.216 10.987 10.455 10.987zm0-470.821c118.443 0 213.961 101.029 213.961 214.109 0 118.98-96.056 214.109-213.961 214.109-118.98 0-212.5-93.521-213.038-212.501 0-112.01 94.596-215.717 213.038-215.717h.001zm0 28.137c-102.098 0-186.509 89.235-186.509 187.58 0 100.49 86.018 186.504 187.58 186.504 100.49 0 186.217-87.089 186.217-186.504 0-97.006-85.727-187.58-187.288-187.58l.001-.001zm0 115.763c38.855 0 72.348 31.085 72.348 71.816 0 38.318-33.493 71.279-72.348 71.279-39.393-.001-71.284-31.886-71.284-71.279 0-39.392 31.891-71.816 71.284-71.816zm1.071 17.419c-29.477 0-53.86 23.045-53.86 52.79 0 31.352 24.921 53.326 53.86 53.326 29.744 0 53.326-23.85 53.326-53.326.001-29.745-23.582-52.789-53.326-52.789v-.001zm17.149 183.289c4.824-1.609 6.433-5.357 6.433-12.058 0-4.286-10.45-11.524-12.058-17.419v-21.436c13.128-2.146 25.185-7.233 35.101-15.542 9.917 9.917 16.08 15.542 16.613 28.675 0 8.303 3.216 14.198 10.987 14.198h3.754c14.203 7.238 24.651 18.225 34.031 31.89-28.137 24.12-59.221 36.177-94.86 39.393-1.877-8.04-2.409-15.273-2.409-23.582 0-8.04.532-15.811 2.409-24.119zm-94.59-26.261c9.911 0 13.934-5.625 13.934-13.665 0-12.595 16.343-25.727 16.343-25.727 9.379 7.507 20.904 11.524 32.961 14.203v21.973c0 1.608-1.608 3.216-2.146 4.287-8.303 8.308-9.911 9.916-9.911 13.67 0 6.696 1.608 10.987 5.356 11.52 2.947 9.378 4.555 17.687 4.555 26.528 0 7.503-1.07 14.741-2.947 22.512-35.101-3.485-66.185-16.612-94.323-39.661 8.309-14.736 21.436-27.331 36.177-35.64zm141.755-53.327-1.608-1.608c8.04-9.911 13.127-21.436 15.273-35.639 22.512 0 27.33 3.216 27.33 3.216s8.309 8.309 15.01 8.309c3.216 0 5.356-1.608 6.964-3.753 9.379-3.48 18.226-4.556 27.605-4.556 6.964 0 15.707.97 22.408 2.842-2.947 36.177-17.052 66.296-40.096 94.433-14.741-9.917-25.19-21.436-32.961-36.715v-1.871c0-8.04-6.964-11.525-13.665-11.525-13.133 0-19.296-5.894-26.26-13.133zm-127.821-96.467c-7.239 9.916-12.063 21.436-15.01 34.031l-11.519.538c-6.432 0-11.525-.538-15.273-5.093-7.771-6.432-9.917-8.04-13.133-8.04-5.093 0-9.379 1.608-10.987 4.824-8.841 2.683-18.22 4.555-27.067 4.555-7.502 0-14.203-1.339-21.167-2.947 3.216-35.102 15.273-65.653 37.785-92.715 15.273 8.841 26.26 20.366 34.569 34.569v3.479c0 5.362 8.841 10.186 13.665 10.186 11.519 0 19.828 8.309 28.137 16.613v-.001zM122.428 373.38l3.216 4.286c-24.12-27.33-37.785-59.221-41.001-96.468 8.572-2.409 16.881-4.017 26.26-4.017 7.233 0 15.273 1.608 23.044 4.017.538 2.678 3.216 4.824 9.917 4.824 1.608 0 5.362-1.608 13.132-8.841 3.211-3.216 14.736-3.216 26.793-3.216 1.608 12.057 6.701 23.577 13.133 33.493-6.97 8.309-13.133 15.811-19.565 15.811-13.127.538-15.004 1.608-15.542 2.409-2.678 2.684-4.286 4.292-4.286 7.508v4.017c-8.303 14.203-20.366 26.26-35.101 36.177zm126.745-188.382c-12.595 2.141-24.114 6.696-34.031 13.666 0-.001-15.273-15.274-16.343-23.045-.538-10.185 0-18.489-11.525-18.489h-4.017c-14.203-8.309-26.26-19.296-34.031-32.961 27.599-23.049 58.683-36.176 93.252-39.661 1.871 7.233 2.409 13.934 2.409 21.436 0 8.846-1.877 18.758-4.017 28.137-3.216 1.608-4.824 4.823-4.824 8.04 0 10.449 13.127 13.934 13.127 25.458v17.419zm190.529 57.908c-6.701 1.608-14.474 3.723-21.976 3.723-8.841-.001-18.22-1.877-28.137-5.093-1.608-3.216-4.824-4.824-10.449-4.824-3.216 0-4.824 2.683-13.133 8.04-4.818 4.555-10.981 4.555-17.951 4.555h-8.309c-1.608-12.595-6.695-24.115-14.203-32.956 8.04-9.379 14.203-17.687 22.512-17.687 12.057-.538 17.951-1.609 17.951-10.186v-1.872c7.239-16.349 19.834-28.943 33.499-36.176 23.044 26.528 37.249 57.913 40.196 92.476zm-66.994-118.737c-9.379 13.127-19.828 24.652-34.569 31.885-10.986 0-13.127 7.502-13.127 14.203 0 12.057-10.987 19.828-18.226 26.798-10.987-6.432-20.898-11.525-32.955-12.057v-17.957c0-6.701 12.057-16.079 12.057-21.436 0-6.163-1.608-9.379-5.362-10.987-3.479-8.841-4.555-17.15-4.555-26.26 0-8.309 1.076-16.617 3.485-23.851 34.569 3.485 65.653 16.612 93.252 39.662zm-92.182 153.543c0-8.572-7.771-17.951-16.612-20.097-1.07-1.339-1.07-2.947-1.07-3.485 0-11.519 7.771-17.419 20.898-17.419 14.741 0 23.044 5.9 26.26 24.12 0 26.798-21.436 48.234-47.696 48.234h-4.824c13.133-3.216 23.044-18.22 23.044-31.353zm-57.613-44.48c-1.608 2.947-1.608 6.163-1.608 8.303 0 13.133 12.063 29.213 25.19 29.213 6.432 0 11.525-2.947 16.349-7.771 6.695 1.608 12.595 8.303 12.595 14.735 0 12.595-11.525 26.529-24.658 26.529-4.286 0-9.379-.532-14.203-2.409-13.665-9.11-23.044-25.728-23.044-41.001 0-9.917 3.216-19.828 9.379-27.599zm39.393-20.098c18.758 0 34.569 10.45 42.872 26.261-6.163-4.824-12.589-7.771-21.436-7.771-16.343 0-25.722 7.771-25.722 22.506 0 1.608 0 4.023 1.07 5.631-3.216 2.678-7.771 4.824-11.525 4.824-9.379 0-21.436-12.063-21.436-23.05 0-6.964 3.754-15.273 13.133-23.044 7.233-3.748 14.735-5.356 23.044-5.356v-.001zm-128.359-75.3 27.868 27.599c-1.07 2.146-1.07 4.824-1.07 13.133l-1.608.532c-8.841-15.004-19.828-25.453-32.961-32.955l7.771-8.309zM258.02 83.437v40.732c-3.485 1.607-6.701 4.824-10.455 8.841 1.608-8.309 2.146-15.542 2.146-23.582 0-8.309-.538-16.612-2.146-24.921 3.216-1.07 6.432-1.07 10.454-1.07h.001zm-98.883 259.659c1.608 2.146 2.678 5.631 2.678 8.847l-1.07 4.818-28.406 29.213c-2.678-2.683-5.087-6.163-6.695-8.309 14.735-8.309 25.184-20.904 33.493-34.569zm-75.833-78.511h39.656c2.684 4.555 4.292 8.304 9.379 10.987-7.771-1.608-16.074-2.683-23.044-2.683-8.309 0-16.612 1.075-25.991 3.216v-11.52zm120.318 51.181-23.049 23.044c-1.608 2.679-10.449 2.679-11.519 2.679-3.216 0-6.701-3.216-6.701-6.696 0-5.899 6.701-5.899 13.396-6.432 9.116 0 19.027-9.916 25.727-16.617l2.146 4.022zm-58.151-188.381c7.234 13.127 19.829 23.577 33.494 31.885-.533 0-1.608 1.07-2.14 1.608h-4.555c-2.146 0-5.362 0-6.97 1.609l-27.599-28.407 7.77-6.695zm118.443 56.537v-33.493c4.017-9.917 6.7-12.595 12.057-12.595 2.947 0 5.093 1.07 5.093 5.093 0 4.286-6.701 9.643-9.917 14.736-2.14 4.286-2.14 15.81-2.14 26.259h-5.093zm77.441 70.208c13.133 0 21.441 0 28.674-4.823 7.503-7.771 9.11-7.771 9.648-7.771 4.555 0 6.163 1.075 6.696 5.093 0 2.678-6.696 12.594-13.128 12.594h-31.89v-5.093zm-133.447-49.304-21.172-21.436c-3.48-3.216-4.555-4.824-6.163-13.133 0-4.824 1.608-8.308 6.163-8.308 1.608 0 3.754.538 5.362 2.145 1.07 1.877 1.07 2.947 1.07 11.525 0 6.695 8.846 16.612 18.225 26.529l-3.485 2.678zm-24.652 54.397h-32.428c-3.211 0-13.666-6.163-13.666-12.594.538-4.018 3.217-5.093 6.701-5.093 2.146 0 2.146 1.608 9.917 7.771 4.819 4.823 13.665 4.823 29.476 4.823v5.093zm127.283-58.683c9.379-8.847 17.688-16.618 19.296-24.921v-9.648c0-2.414 3.748-4.022 6.696-4.022 3.215 0 5.361 4.022 5.361 6.7-1.608 10.449-3.753 12.058-3.753 13.133-5.088 3.216-7.772 6.695-24.115 21.974l-3.485-3.216zm8.309 7.502 21.436-22.511c4.286-3.217 9.379-4.824 14.203-4.824 3.216 0 7.233 2.683 7.233 5.899.001 2.41-3.216 6.696-13.665 6.696-9.916.537-16.079 8.308-25.991 18.225l-3.216-3.485zm-54.935 133.446h5.093c0 16.882.533 25.19 5.357 29.746 2.683 3.215 6.7 8.039 6.7 10.185 0 2.947-2.145 4.555-5.093 4.555-6.431 0-12.057-8.309-12.057-11.525v-32.961zm0 59.759c3.485-2.146 8.309-5.361 11.525-9.916-2.684 7.77-4.292 16.617-4.292 24.657 0 7.771 1.608 16.074 3.217 24.383h-10.45v-39.124zm-61.899-189.72c-9.917-9.379-20.366-18.225-26.265-18.225-9.912-.001-13.934-2.679-13.934-6.163 0-5.356 5.092-5.356 7.238-5.356 6.696 0 11.519 2.14 14.203 4.823l21.436 21.436-2.678 3.485zm177.125 184.896c-8.039-13.132-19.559-23.582-34.569-31.885l1.609-1.608h5.093c2.145 0 3.753 0 7.232-1.075l27.336 27.868-6.701 6.7zM253.997 183.922c0-13.127 0-21.435-2.678-26.259-3.754-8.842-9.917-11.52-9.917-14.736 0-4.023 6.701-5.093 6.701-5.093 4.824 0 10.987 12.596 10.987 13.128v32.961h-5.093zm62.706 136.13 20.366 20.366c3.216 2.678 5.894 7.502 5.894 11.525 0 7.502-1.608 9.911-6.432 9.911-1.871 0-6.696-3.485-6.696-8.841.001-15.811-6.7-22.512-15.811-31.353l2.679-1.608zm-106.385 2.146c-9.911 9.911-17.15 19.29-17.15 24.114 0 2.415.538 5.093.538 6.701 0 3.748-1.608 7.233-6.432 7.233-3.485 0-5.626-4.017-5.626-7.233 0-6.701 3.217-11.525 5.088-13.133l20.102-20.898 3.48 3.216zm63.513-237.691c-1.609 7.233-2.684 15.542-2.684 23.044 0 8.847 1.075 17.15 2.684 24.921-2.684-3.479-7.772-6.695-9.917-8.303V83.437c3.485 0 6.7 0 9.917 1.07zM440.24 258.986l-39.664.237c-2.678-2.947-5.894-6.701-9.379-10.987 7.771 2.678 16.08 3.216 24.388 3.216 8.04 0 16.346-.775 24.654-2.383l.001 9.917zm-356.937-9.68c7.772 1.608 15.004 2.146 22.507 2.146 7.238 0 16.617-.538 24.921-2.146-3.48 2.146-5.088 6.97-6.696 9.917H83.303v-9.917zm82.535 110.94c3.216 1.608 8.04 1.608 12.595 1.608-14.203 9.379-25.728 20.904-34.031 35.639-2.146-1.608-5.093-4.555-7.239-6.695l28.675-30.552zm92.182 40.463v39.662h-10.455c2.146-8.309 3.216-17.688 3.216-25.991 0-5.362-1.07-12.063-2.678-19.565 2.678 3.216 7.771 4.286 9.917 5.894zm0-59.221v32.961c-5.093 11.525-7.239 12.057-11.525 12.057-2.146 0-5.093-2.14-5.093-5.087 0-3.217 0-3.754 7.771-11.525 4.824-4.824 4.824-15.273 4.824-28.406h4.023zm138.27-195.345c-13.132 7.502-24.652 17.951-32.961 32.423l-.532-1.076v-3.48c0-2.145 0-5.361-1.076-8.039l27.336-27.067 7.233 7.239zm-74.763 168.014c8.841 9.11 16.612 15.811 26.529 15.811l8.572.532c3.485 0 5.093 3.217 5.093 5.9 0 4.018-3.216 5.625-6.695 5.625-6.432 0-12.063-2.145-12.063-2.145l-23.044-23.044 1.608-2.679zm62.706-179.54-26.529 25.723c-4.824 0-7.502 0-12.595.538v-1.608c13.396-8.309 23.044-18.758 31.353-31.885l7.771 7.233zM183.257 267.8c-12.595 0-24.12 1.872-28.944 5.088-5.625 4.291-8.303 8.308-11.519 8.308-2.415 0-5.093-2.409-5.093-5.092 0-6.432 6.701-11.52 11.525-11.52h34.031v3.216zM389.59 385.974l-27.868-28.137c1.608-2.678 1.608-5.894 1.608-8.04v-5.093c8.309 14.741 19.828 26.529 32.961 34.569l-6.701 6.701zm-48.234-121.389h29.745c2.145 0 3.753 0 5.361 1.07l6.163 3.485c3.216 2.14 3.749 4.824 3.749 6.964 0 2.684-2.141 5.093-3.749 5.093-3.485 0-8.308-6.701-16.617-10.449-3.211-1.608-16.344-1.608-24.653-1.608l.001-4.555zm98.885 9.674c-7.239-1.608-15.013-1.903-22.514-1.903-8.841 0-18.221 0-26.53 2.14 5.093-3.216 8.309-6.695 9.379-8.841l39.665-.237v8.841zm-4.558-169.386c0 4.555-3.754 6.701-6.432 6.701h-3.484c-1.609-1.608-1.609-2.146-3.217-4.023l.001-2.678c0-3.216 4.555-6.432 6.7-6.432 1.608 0 6.432 1.608 6.432 6.432zM85.181 417.327c0-4.555 4.818-7.771 7.502-7.771 3.485 0 5.625 2.678 5.625 7.771 0 3.216-3.216 5.356-5.625 5.356-2.684 0-7.502-1.607-7.502-5.356zm412.67-146.579c0 3.748-3.485 6.432-6.163 6.432-4.824-1.076-6.432-2.684-6.97-6.432.538-3.485 1.608-6.163 6.97-6.163 3.216 0 6.163 1.608 6.163 6.163zM269.007 24.216c3.748 1.07 6.432 4.555 6.432 6.695 0 4.824-2.684 5.9-6.432 6.432-3.485 0-6.163-.532-6.163-6.432 0-3.479 2.678-6.695 6.163-6.695zm0 473.768c-3.485 0-6.163-2.947-6.163-6.163 0-5.362 2.678-6.701 6.163-6.701 3.748 0 6.432 1.877 6.432 6.163 0 2.146-2.684 5.362-6.432 6.701zM440.238 88.53c0 4.286-3.485 5.894-6.163 5.894-3.216 0-6.432-2.684-6.432-5.894 0-3.485 3.216-6.701 6.432-6.701s6.163 2.678 6.163 6.701zM99.378 429.384c0-4.022 3.216-7.233 5.362-7.233 3.485 0 6.163 2.14 6.163 7.233 0 3.216-2.678 5.894-6.163 5.894-2.146 0-5.362-2.678-5.362-5.894zM81.696 90.137c1.07-3.753 3.485-5.63 6.163-5.63 3.749 0 7.233 1.877 7.233 5.631 0 4.286-3.485 5.894-7.233 5.894-2.678 0-5.093-1.608-6.163-5.894v-.001zm352.379 327.19c0 3.748-4.824 5.356-6.432 5.356-2.415 0-5.625-2.14-5.625-5.356 0-3.485 2.14-6.701 6.695-6.701 1.608 0 5.362 2.146 5.362 6.701zM261.236 9.475c3.216 0 6.163 1.608 6.163 5.894 0 3.485-2.947 6.701-6.163 6.701s-6.701-4.286-6.701-6.701c0-3.21 3.485-5.894 6.701-5.894zm-84.411 347.286c-6.7 0-7.771 0-9.379-.532-1.608-3.216-1.608-6.432-1.608-9.917 4.824 0 5.894 0 12.595-1.608-1.075 4.023-1.608 8.309-1.608 12.057zM99.379 94.424c0-4.286 3.754-5.894 6.431-5.894 3.485 0 5.631 1.608 5.631 5.894 0 4.017-1.608 5.626-5.631 5.626-3.215-.001-6.431-1.608-6.431-5.626zm413.208 168.015c0 3.754-2.679 6.701-5.895 6.701-3.484 0-6.695-2.947-6.695-6.701 1.07-2.678 3.21-6.163 6.695-6.163 3.216 0 5.894 3.485 5.894 6.163h.001zM93.215 100.049c2.953 0 6.164 3.216 6.164 6.432 0 3.485-2.679 6.163-6.164 6.163-2.14 0-6.426-1.608-6.426-6.701 0-2.678 4.286-5.894 6.426-5.894zM81.696 433.67c0-4.286 3.485-6.163 6.163-6.163 3.749 0 6.432 1.877 6.432 6.163 0 3.216-3.216 5.362-6.432 5.362s-6.163-1.608-6.163-5.362zM25.153 269.672c0-4.017 2.415-5.625 5.625-5.625 5.9 0 5.9 2.146 5.9 5.625 0 4.824-1.076 5.9-5.9 5.9-2.14 0-5.625-1.608-5.625-5.9zM252.39 496.645c-2.679 0-5.895-3.215-5.895-5.362 0-3.215 3.217-6.162 7.502-6.162 3.485 0 5.094 3.484 5.094 6.162 0 4.824-2.679 5.362-6.702 5.362h.001zm186.24-62.974c0 3.753-2.947 5.361-6.163 5.361s-5.362-2.145-6.701-5.361c0-4.287 3.485-6.163 6.701-6.163 2.678 0 6.163 1.876 6.163 6.163zM25.691 254.131c0-4.286 2.947-6.432 5.088-6.432 3.215 0 6.432 3.754 6.432 6.97 0 3.485-4.824 5.092-6.432 5.092-3.749 0-5.088-2.145-5.088-5.63zM261.236 512.72c-3.216 0-6.701-3.21-6.701-6.163 0-3.216 3.485-5.356 6.701-5.356 3.216 0 6.163 1.608 6.163 5.356 0 3.485-2.947 6.163-6.163 6.163zm0-131.838c3.216 6.7 4.824 8.309 7.771 8.841-1.608 2.683-4.555 5.093-7.771 6.701-3.216-1.608-5.362-3.485-7.239-5.625 3.485-2.684 5.094-6.432 7.239-9.917zm7.771-246.263c-2.947 1.07-5.093 3.216-7.771 9.917-3.216-6.701-5.362-8.309-8.309-9.917 3.485-4.017 6.701-5.093 8.309-5.625 2.678 1.608 4.824 3.479 7.771 5.625zM143.865 261.37c-6.163 2.678-8.309 4.824-9.917 7.771-4.286-4.555-5.088-6.163-6.163-7.771 1.075-3.216 3.485-5.093 6.163-6.701l9.917 6.701zM252.39 25.824c4.023 0 6.701.001 6.701 5.088 0 2.684-1.608 6.432-5.093 6.432-4.286 0-6.432-3.216-6.432-6.432 0-2.141 2.146-5.087 4.824-5.087v-.001zM10.418 262.44c0-3.216 2.141-6.701 5.626-6.701 3.215 0 5.894 3.485 5.894 6.701-1.07 3.215-3.216 5.361-5.894 5.361-3.485 0-5.093-2.145-5.626-5.361zM422.551 91.741c0 5.093-3.216 7.771-5.357 7.771-3.484 0-6.163-2.678-6.163-7.771 0-3.21 2.679-3.748 6.163-3.748 2.141 0 5.357 1.608 5.357 3.748zm74.23 162.928c0 3.485-.538 6.163-5.093 6.163-3.216 0-6.432-1.608-6.432-5.093 0-3.216 3.216-6.432 6.432-6.432 2.679 0 5.093 2.146 5.093 5.362zm-117.103 7.771c6.695-3.216 8.303-6.701 9.911-8.309 2.948 1.608 5.093 7.239 6.163 8.309-1.07 1.608-3.216 4.824-6.163 6.701-1.608-1.877-3.216-4.555-9.911-6.701zm-35.107-83.874c3.485-7.771 3.485-9.379 3.485-12.595h8.573c1.075 3.217 1.075 6.432 1.075 9.11-6.432 0-10.718 2.41-13.133 3.486v-.001zm3.485 179.272c0-1.609-1.07-9.11-1.877-10.987 7.239 1.07 8.847 1.07 11.525 1.07 0 2.414 0 5.631-1.075 8.841-2.141 1.076-8.573 1.076-8.573 1.076zM178.433 178.566c-4.555-1.608-8.309-2.947-12.595-2.947 0-4.824 1.07-6.97 1.07-8.578 3.216-1.07 4.824-1.07 8.309-1.07 0 4.286.532 7.502 3.216 12.595zm242.51 250.819c0 3.216-2.141 4.824-6.696 4.824-1.608 0-4.824-1.608-4.824-4.824 0-4.023 3.216-5.626 6.163-5.626 2.141 0 5.357 1.603 5.357 5.626z"/>
</svg>