<?xml version="1.0" standalone="no"?>
<!DOCTYPE svg PUBLIC "-//W3C//DTD SVG 20010904//EN"
 "http://www.w3.org/TR/2001/REC-SVG-20010904/DTD/svg10.dtd">
<svg version="1.0" xmlns="http://www.w3.org/2000/svg"
 width="960.000000pt" height="960.000000pt" viewBox="0 0 960.000000 960.000000"
 preserveAspectRatio="xMidYMid meet">
<metadata>
Created by potrace 1.14, written by Peter Selinger 2001-2017
</metadata>
<g transform="translate(0.000000,960.000000) scale(0.100000,-0.100000)"
fill="#000000" stroke="none">
<path d="M1502 9592 c2 -4 40 -83 85 -175 73 -146 88 -170 123 -192 22 -14 44
-25 50 -25 6 0 34 -17 63 -39 29 -21 62 -42 75 -46 12 -3 22 -12 22 -19 0 -7
15 -19 33 -28 45 -23 157 -106 157 -118 0 -6 -7 -10 -15 -10 -8 0 -15 5 -15
10 0 6 -18 10 -40 10 l-40 0 0 -40 c0 -31 4 -40 18 -40 10 0 25 -16 36 -40 11
-22 23 -40 27 -40 4 0 26 -19 48 -42 36 -36 41 -47 39 -82 -1 -37 -2 -38 -5
-8 -5 38 -12 40 -41 9 -26 -27 -28 -37 -7 -37 8 0 15 -4 15 -10 0 -13 0 -13
-48 10 -22 11 -50 20 -62 20 -11 0 -20 4 -20 9 0 9 -8 12 -62 27 -24 7 -23
-17 0 -42 38 -40 51 -71 58 -129 4 -33 10 -64 14 -70 4 -5 17 -42 29 -82 22
-76 27 -133 11 -133 -5 0 -10 -18 -10 -40 l0 -40 -62 5 c-35 2 -54 2 -43 -1
11 -3 29 -23 39 -45 12 -24 22 -35 26 -28 6 8 9 8 15 -1 9 -15 0 -23 -50 -42
-34 -13 -42 -14 -53 -2 -7 8 -22 14 -32 14 -24 0 -27 -31 -6 -52 11 -12 11
-20 -1 -51 -8 -20 -19 -37 -24 -37 -5 0 -9 -8 -9 -17 -1 -17 -1 -17 -14 0 -7
9 -18 17 -25 17 -6 0 -11 7 -11 15 0 9 -7 18 -15 21 -8 4 -15 15 -15 25 0 10
-4 19 -10 19 -5 0 -10 -18 -10 -40 0 -22 5 -40 10 -40 6 0 10 -11 10 -25 0
-25 -1 -25 -80 -25 -48 0 -80 -4 -80 -10 0 -7 -7 -7 -20 0 -11 6 -34 13 -51
15 -17 2 -46 13 -66 25 -28 17 -47 20 -85 16 -43 -5 -51 -2 -76 22 -27 27 -81
57 -89 49 -5 -6 19 -60 31 -69 5 -3 10 -22 10 -42 1 -22 6 -36 14 -36 19 0 15
-9 -18 -37 -38 -32 -38 -41 3 -46 28 -3 26 -4 -10 -5 -24 -1 -43 2 -43 6 0 5
-24 21 -52 35 -56 28 -108 70 -108 86 0 5 -13 12 -30 16 -16 4 -30 11 -30 16
0 5 -9 9 -21 9 -17 0 -19 -5 -15 -33 3 -19 8 -41 12 -50 3 -10 3 -17 -1 -17
-10 0 -35 27 -35 39 0 6 -10 17 -23 25 -12 9 -33 37 -47 63 -14 26 -35 58 -47
72 -13 13 -23 28 -23 34 0 5 -12 26 -27 46 -16 20 -33 45 -39 56 -12 21 -54
34 -54 16 0 -6 -9 -11 -20 -11 -11 0 -34 -9 -52 -20 -18 -11 -40 -20 -48 -20
-34 0 -197 -59 -335 -120 -33 -15 -93 -37 -132 -49 l-73 -22 0 -474 c0 -464 0
-475 19 -475 11 0 22 -4 26 -10 3 -5 13 -6 22 -3 11 4 14 3 9 -5 -5 -8 -1 -10
10 -5 10 4 20 0 26 -10 5 -10 16 -17 25 -17 8 0 36 -11 62 -24 61 -32 150 -66
170 -66 9 0 31 -9 49 -20 18 -11 43 -20 57 -20 23 0 54 -33 68 -71 4 -12 14
-15 34 -12 20 3 24 2 14 -5 -14 -10 -6 -15 46 -27 65 -16 112 -32 124 -41 8
-6 39 -16 69 -23 30 -8 99 -28 153 -46 78 -26 105 -31 135 -24 113 24 382 69
414 69 45 0 70 -9 62 -22 -4 -6 5 -2 19 7 15 9 31 14 37 10 6 -4 -30 -46 -85
-100 -52 -51 -95 -95 -95 -98 0 -2 28 -15 63 -27 147 -54 407 -195 407 -222 0
-4 -12 -6 -27 -4 -16 2 -20 1 -10 -1 18 -5 24 -23 7 -23 -5 0 -10 -9 -10 -20
0 -11 5 -20 10 -20 6 0 10 -7 10 -15 0 -11 -11 -15 -40 -15 -48 0 -51 -10 -8
-29 30 -13 30 -15 12 -28 -14 -11 -37 -13 -84 -10 -62 5 -64 5 -35 -9 l30 -15
-28 6 c-16 3 -38 3 -50 -1 -20 -6 -20 -7 -1 -21 17 -14 14 -15 -36 -9 -30 3
-68 8 -85 11 -23 4 -18 -1 22 -20 91 -45 43 -77 -81 -56 -39 7 -93 16 -121 21
-46 7 -98 21 -255 67 -82 24 -120 32 -120 24 0 -6 196 -71 385 -127 33 -9 55
-19 48 -21 -11 -4 -94 16 -323 79 -232 64 -219 62 -246 33 -13 -14 -24 -30
-24 -36 0 -5 -4 -9 -8 -9 -4 0 -15 -13 -24 -28 -9 -15 -30 -43 -47 -62 -17
-19 -43 -60 -58 -90 -15 -30 -31 -59 -36 -65 -13 -16 -97 -146 -97 -152 0 -2
-10 -19 -23 -36 -30 -44 -45 -68 -60 -97 -16 -34 -48 -81 -70 -105 -10 -11
-28 -36 -40 -55 -11 -19 -24 -37 -28 -40 -3 -3 -21 -30 -40 -60 -18 -30 -37
-56 -41 -58 -4 -2 -8 -9 -8 -15 0 -6 -11 -22 -24 -36 -14 -15 -38 -52 -54 -84
-17 -31 -34 -63 -40 -70 -5 -6 -12 -24 -15 -38 -4 -15 -25 -65 -47 -113 -22
-47 -40 -89 -40 -93 0 -16 -64 -143 -72 -143 -4 0 -8 -126 -8 -280 l0 -280 79
0 c54 0 81 4 84 13 3 10 9 10 26 0 25 -15 101 -17 101 -3 0 6 7 10 15 10 8 0
15 -4 15 -10 0 -5 18 -10 40 -10 30 0 40 -4 40 -16 0 -9 6 -14 13 -11 6 2 11
10 10 16 -3 13 29 15 43 2 14 -13 72 -22 79 -11 3 5 -5 10 -17 13 -13 2 4 3
37 3 54 0 57 -1 27 -10 -17 -5 -32 -13 -32 -17 0 -5 19 0 43 9 23 10 58 19 77
20 19 2 37 6 40 10 3 4 40 16 84 26 43 10 113 29 155 43 42 13 101 30 131 38
30 7 116 29 190 49 74 20 140 36 145 35 6 0 -70 -26 -167 -58 -211 -70 -212
-70 -206 -77 3 -2 50 7 104 22 288 76 412 98 467 83 20 -5 37 -12 37 -14 0 -8
-83 -45 -157 -70 -73 -26 -75 -31 -3 -14 25 6 75 16 113 24 64 12 67 12 67 -6
0 -11 -7 -19 -15 -19 -8 0 -15 -4 -15 -10 0 -5 8 -10 18 -10 21 0 66 -43 55
-53 -3 -4 2 -7 13 -7 13 0 7 -8 -21 -25 l-40 -25 35 6 c19 3 51 10 70 15 51
13 69 11 40 -5 -24 -14 -24 -14 23 -21 26 -4 47 -11 47 -15 0 -4 -16 -15 -36
-25 -45 -21 -41 -25 16 -15 49 9 65 4 37 -11 -9 -6 -25 -18 -35 -29 -30 -32
-292 -160 -331 -161 -24 -1 -23 -2 7 -10 30 -9 36 -29 9 -29 -7 0 -38 -13 -68
-29 -31 -16 -71 -32 -90 -36 -31 -7 -77 -31 -89 -46 -3 -4 -14 -9 -25 -12 -11
-3 0 -3 25 0 25 3 75 13 113 23 37 11 65 15 62 9 -4 -5 -15 -9 -26 -9 -10 0
-19 -4 -19 -9 0 -5 -10 -11 -22 -14 -25 -6 -101 -32 -133 -46 -11 -5 -67 -23
-125 -41 -127 -39 -441 -138 -604 -191 -66 -21 -126 -39 -133 -39 -7 0 -21 -4
-31 -9 -9 -5 -53 -22 -97 -36 -85 -28 -165 -62 -165 -70 0 -2 13 -11 30 -20
19 -10 60 -15 122 -16 51 -1 84 -3 73 -6 -21 -5 -79 -28 -106 -43 -9 -5 -33
-12 -53 -15 -20 -4 -36 -11 -36 -16 0 -5 -10 -9 -22 -9 -13 0 -30 -4 -38 -10
-8 -5 -17 -5 -20 -1 -3 5 -22 2 -43 -7 l-37 -17 0 -222 0 -223 23 -1 22 0 -23
-11 c-21 -10 -22 -17 -22 -120 l0 -108 80 0 80 0 0 40 0 40 80 0 80 0 0 40 0
40 123 -1 c67 0 115 -3 107 -6 -18 -6 -96 -86 -160 -162 -25 -30 -59 -70 -75
-90 -53 -63 -121 -173 -160 -261 -21 -46 -44 -91 -51 -98 -8 -7 -22 -33 -33
-57 -11 -25 -25 -45 -30 -45 -6 0 -11 -9 -11 -20 0 -11 -7 -23 -15 -26 -12 -5
-15 -30 -15 -140 0 -74 4 -134 9 -134 4 0 39 17 77 38 38 20 87 46 109 57 22
11 42 23 45 26 8 9 355 179 366 179 21 0 94 77 94 98 0 12 5 22 10 22 6 0 10
6 10 14 0 8 4 16 9 18 5 2 17 17 27 34 42 68 114 171 143 203 17 19 33 43 37
53 3 10 10 18 15 18 12 0 12 -37 0 -42 -5 -2 -5 -13 0 -25 12 -33 73 -32 105
2 13 14 27 25 31 25 5 0 27 18 48 40 21 22 45 40 52 40 7 0 13 5 13 11 0 8 5
8 15 -1 9 -7 15 -29 15 -51 0 -22 5 -39 10 -39 18 0 11 -40 -15 -80 -15 -24
-21 -41 -14 -45 12 -8 69 14 69 26 0 5 6 9 14 9 8 0 16 7 20 15 4 11 21 15 63
15 32 1 69 7 83 15 14 8 36 14 48 15 13 0 38 8 54 17 23 14 32 15 35 6 6 -18
159 -18 167 0 3 6 2 -1 -1 -18 -3 -16 -11 -33 -17 -37 -13 -8 -8 -98 5 -98 5
0 9 9 9 19 0 11 11 32 24 46 24 25 26 26 55 11 42 -22 48 -36 23 -57 -27 -21
-27 -31 -2 -54 19 -17 21 -17 39 -1 18 16 20 16 44 -6 21 -19 24 -29 20 -56
-3 -19 -13 -36 -22 -40 -9 -3 -21 -11 -28 -18 -9 -9 -1 -10 35 -6 26 3 49 9
50 13 17 43 49 -58 33 -103 -14 -40 -14 -43 4 -28 24 20 29 4 11 -40 -9 -22
-16 -50 -16 -61 0 -11 -7 -34 -16 -52 -9 -17 -17 -56 -18 -86 0 -48 -4 -58
-38 -92 -40 -41 -47 -63 -23 -73 20 -7 65 14 65 31 0 8 12 13 30 13 23 0 30
-4 28 -16 -2 -10 3 -19 11 -22 10 -3 13 2 9 22 -4 18 -1 26 8 26 8 0 14 -6 14
-13 0 -8 9 -22 20 -32 22 -20 27 -45 9 -45 -16 0 -48 -42 -49 -62 0 -10 -5
-18 -10 -18 -6 0 -17 -18 -26 -40 -9 -22 -20 -40 -25 -40 -17 0 -68 -43 -63
-52 3 -4 14 -8 25 -8 30 0 22 -20 -8 -21 l-28 0 25 -10 c17 -7 26 -7 28 0 2 6
18 11 35 11 l32 -1 -41 -37 c-23 -20 -52 -44 -64 -52 -12 -8 -28 -20 -34 -26
-7 -6 -22 -15 -34 -18 -12 -4 -22 -12 -22 -17 0 -5 -7 -9 -15 -9 -8 0 -15 -3
-15 -7 0 -11 -84 -63 -102 -63 -29 0 -77 -55 -108 -125 -18 -38 -36 -77 -41
-85 -4 -8 -32 -62 -62 -120 -29 -58 -79 -153 -111 -212 l-57 -108 805 0 806 0
35 74 c19 41 35 79 35 84 0 6 5 12 11 14 7 2 7 11 -1 30 -9 18 -18 24 -31 21
-11 -3 -19 0 -19 6 0 9 14 10 46 5 34 -5 45 -4 40 5 -8 12 13 81 24 81 4 0 13
18 20 39 7 22 19 42 27 46 9 3 13 11 10 18 -3 7 1 21 9 32 9 12 10 21 4 25 -6
4 0 20 15 40 14 19 25 38 25 42 0 5 8 27 19 51 10 23 33 89 51 147 56 179 238
723 254 762 21 48 27 49 14 2 -12 -44 -3 -58 12 -18 6 16 14 38 19 49 5 11 22
52 37 90 14 39 37 92 50 119 13 28 24 53 24 58 0 5 11 26 25 48 l25 40 36 -15
c49 -20 63 -19 74 8 7 18 9 15 9 -20 1 -43 14 -57 25 -28 11 30 36 17 36 -20
0 -19 5 -35 11 -35 7 0 8 -16 3 -46 -5 -34 -4 -45 5 -40 7 5 11 -1 11 -15 l0
-23 21 23 c12 12 23 20 26 18 5 -6 -16 -123 -28 -155 -11 -29 -11 -42 0 -42 5
0 12 17 16 37 6 36 51 133 60 133 3 0 4 -3 3 -7 0 -5 2 -16 7 -26 17 -40 -14
-226 -74 -437 -44 -155 -82 -321 -78 -333 3 -6 6 -2 6 10 1 13 23 89 50 170
27 82 61 188 77 238 15 49 29 84 31 78 4 -11 -44 -199 -92 -358 -47 -157 -56
-187 -96 -335 -67 -245 -71 -261 -65 -276 3 -8 1 -14 -4 -14 -11 0 -14 -33 -3
-44 11 -11 32 -79 27 -88 -3 -4 0 -8 5 -8 6 0 11 -7 11 -16 0 -13 7 -15 33
-10 17 3 27 2 20 -2 -8 -5 -9 -13 -3 -22 15 -23 12 -40 -5 -34 -8 4 -15 1 -15
-5 0 -6 6 -11 13 -11 8 0 13 -13 13 -32 0 -37 23 -90 42 -96 7 -2 12 5 12 16
0 27 7 31 48 21 30 -6 41 -4 58 12 11 10 24 19 29 19 4 0 13 7 20 17 13 17 35
10 35 -11 0 -7 -18 -34 -41 -60 l-41 -46 98 0 c80 0 99 3 110 18 13 16 15 16
28 -1 12 -16 33 -17 227 -15 l214 3 9 43 c6 26 14 42 24 42 11 0 13 -9 8 -44
l-7 -45 630 -1 631 -1 2 83 c2 46 1 118 0 161 l-3 77 30 0 c29 0 31 -2 31 -40
0 -22 5 -40 10 -40 6 0 10 -18 10 -40 0 -22 5 -40 10 -40 6 0 10 -13 10 -29 0
-42 22 -131 32 -131 5 0 6 30 2 67 -5 51 -4 65 5 57 6 -6 13 -27 14 -47 2 -20
7 -40 12 -44 11 -11 -1 61 -25 142 -17 58 -20 63 -16 28 2 -24 0 -43 -5 -43
-5 0 -9 34 -8 76 1 42 -3 79 -8 83 -5 3 -21 57 -36 119 -16 62 -34 134 -42
160 -19 62 -86 299 -95 337 -4 17 -30 109 -58 205 -28 96 -54 193 -57 215 l-6
40 15 -35 c7 -19 33 -96 56 -170 51 -165 93 -281 98 -275 3 2 -3 28 -13 57
-21 66 -75 269 -95 358 -4 19 -15 62 -24 95 -27 104 -37 197 -23 228 15 35 22
34 37 -5 7 -18 16 -42 21 -53 4 -11 18 -49 30 -85 11 -36 25 -72 31 -80 7 -12
8 -10 3 5 -18 57 -55 224 -55 250 l0 30 21 -25 c11 -14 18 -20 15 -14 -3 6 6
24 19 38 17 18 25 39 25 62 0 19 4 33 9 30 5 -4 12 12 16 34 7 40 22 60 34 44
3 -5 23 -9 44 -9 32 0 37 3 37 23 0 79 91 -69 166 -269 40 -108 70 -180 102
-249 11 -23 12 -23 6 10 -3 19 -12 61 -20 93 -17 72 -17 90 0 57 20 -37 65
-167 151 -435 122 -380 155 -479 165 -497 6 -10 10 -22 10 -28 0 -6 8 -27 17
-48 16 -35 19 -45 22 -67 1 -5 6 -3 11 5 7 11 10 6 10 -22 0 -20 4 -39 9 -43
5 -3 15 -22 22 -43 6 -20 15 -39 18 -42 3 -3 12 -23 19 -45 8 -22 22 -58 32
-80 10 -22 26 -60 35 -85 9 -25 21 -52 26 -60 5 -8 12 -23 15 -32 6 -17 54
-18 820 -18 l814 0 -60 113 c-33 61 -76 144 -96 182 -19 39 -39 77 -43 85 -5
8 -33 64 -62 124 -54 108 -55 109 -116 142 -35 18 -73 42 -85 53 -12 12 -25
21 -30 21 -4 0 -34 18 -65 40 -32 22 -61 40 -64 40 -4 0 -25 18 -48 40 -22 22
-45 40 -49 40 -5 0 -9 7 -9 15 0 19 11 19 31 0 8 -8 24 -15 35 -15 18 0 21 6
21 40 0 24 -5 40 -12 40 -6 0 -9 3 -6 6 3 3 -11 23 -31 45 -21 21 -46 55 -57
74 -10 19 -26 35 -35 35 -12 0 -16 6 -12 20 3 11 12 20 19 20 8 0 32 12 54 26
l40 27 38 -27 c43 -30 62 -33 62 -11 0 21 -27 72 -40 77 -12 4 -21 46 -20 91
0 15 -6 41 -15 57 -8 16 -15 42 -15 58 0 15 -4 32 -9 38 -4 5 -5 36 -1 69 4
33 3 68 -1 77 -12 22 -11 58 0 58 5 0 24 -6 43 -14 49 -21 65 -8 51 39 -12 36
-3 85 14 85 14 -1 43 -27 43 -39 0 -19 19 -3 36 31 12 22 13 33 4 38 -17 11
19 80 42 80 10 0 18 -6 18 -14 0 -7 10 -16 23 -20 34 -9 37 -8 37 14 0 11 -4
20 -9 20 -5 0 -11 10 -14 22 -2 13 -8 31 -12 41 -5 13 -2 17 14 17 12 0 21 -4
21 -10 0 -14 69 -12 84 3 19 18 13 51 -17 96 -15 22 -27 47 -27 56 0 8 -4 15
-10 15 -5 0 -10 18 -10 40 0 32 4 40 18 40 10 0 23 -5 30 -12 9 -9 12 0 12 40
0 40 4 52 15 52 9 0 15 9 15 25 0 14 -7 28 -15 31 -8 4 -15 16 -15 29 0 14 -7
25 -20 28 -36 9 -21 26 23 25 57 -1 77 -7 77 -24 0 -23 15 -16 48 21 36 39 38
45 18 45 -24 0 -27 16 -6 40 19 22 20 22 20 3 0 -18 5 -16 37 16 31 30 38 33
41 19 3 -14 13 -18 43 -18 21 0 39 5 39 10 0 6 18 10 40 10 33 0 40 -3 40 -20
0 -11 6 -20 14 -20 7 0 16 -9 19 -20 4 -17 14 -20 66 -20 34 0 61 -4 61 -10 0
-5 -9 -10 -20 -10 -17 0 -20 -7 -20 -40 l0 -40 109 0 c109 0 110 0 141 31 17
18 29 37 27 43 -3 7 10 10 39 7 44 -3 44 -3 44 -42 l0 -39 60 0 c60 0 60 0 60
-29 0 -16 5 -52 12 -80 10 -47 14 -51 40 -51 26 0 28 -3 28 -40 l0 -40 40 0
c40 0 40 0 40 -39 0 -35 3 -39 31 -45 17 -3 44 -6 60 -6 l29 0 0 399 0 398
-40 7 c-22 3 -40 11 -40 17 0 7 -19 10 -47 8 -29 -1 -63 5 -85 14 -44 20 -104
22 -111 5 -4 -9 -14 -4 -31 15 -14 15 -30 27 -36 27 -5 0 -10 7 -10 15 0 11
-11 15 -35 15 -20 0 -52 7 -72 15 -19 8 -57 15 -83 15 -44 0 -48 2 -53 29 -6
28 -8 29 -82 36 -64 6 -75 10 -75 26 0 15 -7 19 -40 19 -33 0 -40 3 -40 20 0
17 -7 20 -46 20 -37 0 -51 5 -76 30 -17 17 -35 29 -42 27 -6 -2 -20 8 -31 23
-11 15 -27 26 -35 25 -18 -3 -24 31 -8 41 16 10 179 44 210 44 15 0 28 5 28
10 0 6 -1 10 -2 10 -11 0 -232 81 -246 90 -15 10 -15 11 3 6 11 -2 46 -7 78
-11 31 -3 57 -11 57 -16 0 -5 12 -9 28 -8 l27 1 -26 11 c-14 7 -32 17 -40 23
-8 7 -29 15 -46 19 -18 3 -33 10 -33 15 0 4 -26 16 -57 26 -32 10 -60 21 -63
24 -3 4 -17 10 -32 14 -34 8 -37 26 -5 27 19 0 19 2 -8 14 -85 39 -143 63
-165 70 -22 7 -97 51 -110 65 -3 3 -18 15 -33 27 -26 20 -27 22 -7 28 11 3 30
3 42 -1 19 -6 20 -5 8 8 -8 8 -23 17 -33 21 -26 10 -12 25 28 33 21 4 32 10
28 17 -6 10 16 8 95 -9 35 -7 46 10 11 19 -18 5 -19 8 -7 26 7 11 25 25 40 30
34 12 39 50 8 58 -11 3 -20 9 -20 14 0 11 -8 12 105 -11 111 -23 149 -25 90
-5 -64 22 -108 40 -130 52 -20 12 -20 12 -1 26 13 9 35 13 60 10 63 -6 259
-44 281 -53 11 -5 43 -14 70 -19 28 -6 75 -18 105 -27 90 -26 123 -33 114 -25
-12 11 -127 52 -254 91 -58 18 -118 37 -133 42 -51 19 -21 18 49 -1 38 -11
186 -52 328 -92 143 -39 272 -73 288 -74 15 -1 34 -7 41 -13 6 -6 44 -17 82
-25 39 -8 78 -18 88 -22 10 -4 17 -3 17 4 0 6 -7 11 -15 11 -8 0 -15 5 -15 10
0 10 44 7 93 -7 11 -3 17 1 17 11 0 12 10 16 40 16 l40 0 0 528 -1 527 -25 18
c-18 14 -28 16 -38 8 -9 -8 -23 -3 -50 15 -29 20 -45 25 -69 20 -23 -5 -43 1
-81 23 -53 30 -57 31 -81 31 -22 0 -18 19 6 28 18 7 16 10 -19 20 -35 11 -51
26 -52 50 0 4 5 7 12 7 6 0 13 6 16 14 3 9 0 12 -10 9 -8 -4 -20 2 -26 13 -8
12 -24 19 -43 19 -17 0 -28 4 -24 10 3 6 0 10 -7 10 -11 0 -11 2 0 8 9 6 -1
13 -30 22 -36 11 -40 14 -23 21 11 4 30 8 43 8 13 1 22 7 22 16 0 12 13 15 55
15 30 0 55 5 55 10 0 6 -22 10 -49 10 -27 0 -62 5 -78 11 l-28 11 24 19 c18
14 19 19 7 19 -13 0 -16 13 -16 79 0 54 -4 81 -12 84 -8 3 -1 9 15 16 33 13
35 29 3 41 -18 7 -22 14 -19 34 3 14 2 37 -1 51 l-6 25 -125 -3 c-69 -2 -125
0 -125 5 0 4 -19 8 -43 8 -24 0 -62 9 -85 20 -22 11 -54 20 -70 20 -15 0 -33
5 -38 10 -7 7 -17 4 -30 -7 -22 -21 -104 -65 -104 -57 0 3 8 19 17 35 20 33
13 45 -17 29 -28 -15 -75 -9 -75 10 0 19 -42 40 -82 40 -43 0 -65 35 -28 44
14 4 25 11 25 17 0 7 -19 8 -57 3 -53 -6 -57 -6 -44 10 12 14 9 16 -25 17 -22
1 -31 3 -21 6 36 9 15 20 -32 15 -53 -5 -72 8 -49 35 11 13 9 18 -10 31 -17
11 -22 24 -22 58 0 41 -2 44 -26 44 -22 0 -23 2 -12 14 8 7 34 24 57 37 111
61 111 61 111 129 0 57 0 58 33 65 17 4 82 6 144 5 61 -1 126 1 143 5 31 7 31
8 13 23 -24 21 -60 42 -72 42 -5 0 -23 14 -39 30 -17 17 -38 30 -46 30 -9 0
-16 5 -16 10 0 6 8 10 18 10 14 0 15 2 2 10 -23 14 -5 23 32 15 27 -7 30 -9
14 -15 -13 -4 -16 -9 -8 -14 6 -3 28 0 49 9 20 9 51 17 69 20 40 5 107 37 106
50 -2 12 26 20 158 45 58 11 125 24 150 29 25 6 108 17 185 26 77 9 194 23
260 31 67 7 136 14 155 14 26 0 31 3 20 10 -13 8 -12 10 3 10 10 0 29 7 42 16
l25 16 0 729 c0 648 -2 729 -15 729 -9 0 -18 6 -21 14 -3 8 -21 17 -39 20 -73
14 -265 -98 -265 -155 0 -16 -43 -82 -129 -199 -15 -19 -38 -52 -51 -72 -14
-21 -28 -38 -32 -38 -5 0 -8 -9 -8 -19 0 -17 -18 -31 -40 -31 -5 0 -8 9 -7 19
0 11 5 17 9 15 4 -3 8 9 8 25 0 17 -4 31 -10 31 -5 0 -10 5 -10 10 0 6 7 10
15 10 16 0 21 35 7 44 -10 6 -52 -47 -52 -66 0 -7 -18 -22 -40 -32 -24 -12
-40 -26 -40 -37 0 -10 -15 -23 -40 -33 -22 -9 -40 -20 -40 -26 0 -5 -8 -10
-19 -10 -10 0 -24 -7 -31 -15 -20 -24 -30 -18 -30 18 -1 29 -2 30 -14 15 -20
-27 -26 -22 -26 22 0 22 5 40 10 40 6 0 10 7 10 15 0 15 19 55 31 65 4 3 9 15
13 28 6 18 4 22 -15 22 -26 0 -89 -45 -89 -64 0 -16 -68 -15 -78 1 -5 8 -19 6
-46 -8 -22 -10 -57 -19 -78 -19 -21 0 -38 -4 -38 -8 0 -16 -52 -34 -64 -22
-13 13 -96 13 -96 0 0 -26 -30 -6 -44 30 -16 40 -36 54 -36 25 0 -11 -11 -15
-40 -15 l-40 0 0 65 0 65 -39 0 c-27 0 -49 7 -67 23 -23 20 -25 26 -15 45 6
12 18 22 26 22 8 0 15 5 15 11 0 7 8 18 18 25 15 12 15 13 1 14 -9 0 -37 -6
-62 -14 -34 -10 -49 -11 -54 -3 -3 6 -1 13 5 15 15 5 16 91 2 128 -8 21 -7 32
5 51 9 13 13 33 10 43 -4 11 -3 20 2 20 19 0 44 122 29 137 -2 2 -20 -5 -41
-17 -21 -12 -40 -18 -43 -15 -11 10 15 40 32 37 9 -2 16 4 16 13 0 8 6 15 14
15 22 0 96 76 96 99 0 27 -13 26 -58 -4 -20 -14 -51 -25 -69 -25 -17 0 -35 -4
-38 -10 -16 -27 -25 -3 -25 70 0 44 4 80 8 80 4 0 34 25 65 56 46 46 57 62 57
89 0 38 -22 49 -71 35 -26 -8 -29 -7 -19 5 7 8 19 15 26 15 8 0 14 7 14 15 0
8 7 15 15 15 8 0 15 4 15 10 0 5 20 21 44 35 23 14 51 34 61 45 10 11 24 20
30 20 7 0 18 7 25 15 7 8 21 15 31 15 11 0 19 7 19 15 0 8 7 15 15 15 8 0 15
5 15 10 0 6 10 10 22 10 11 0 37 12 56 27 64 49 161 293 116 293 -10 0 -14 12
-14 40 l0 40 -259 0 -259 0 -12 -31 c-15 -36 -66 -102 -227 -294 -73 -87 -102
-122 -128 -149 -12 -11 -38 -44 -58 -73 -21 -29 -52 -64 -70 -79 -18 -14 -71
-62 -119 -106 -107 -98 -215 -178 -292 -218 -33 -17 -84 -46 -115 -64 -174
-103 -213 -124 -290 -157 -65 -26 -89 -42 -99 -62 -14 -28 -39 -38 -28 -12 9
25 -23 17 -49 -11 -14 -15 -25 -32 -25 -39 0 -7 -7 -26 -15 -41 -8 -16 -15
-23 -15 -16 0 7 -5 10 -10 7 -6 -4 -7 -11 -4 -17 4 -6 0 -16 -8 -22 -15 -11
-48 -72 -48 -88 0 -18 -71 -119 -79 -113 -6 3 -12 1 -16 -5 -10 -17 -25 -11
-25 10 0 26 -30 26 -37 0 -3 -12 -11 -19 -17 -17 -7 3 -10 32 -9 83 0 43 -1
69 -4 57 -6 -28 -23 -30 -23 -3 0 11 -4 20 -9 20 -5 0 -13 9 -16 20 -3 11 -12
20 -20 20 -8 0 -17 9 -20 20 -8 24 -21 26 -29 4 -11 -29 -24 -4 -19 36 7 50
-1 51 -26 3 -12 -23 -20 -31 -21 -20 0 9 -7 17 -15 17 -9 0 -15 9 -15 21 0 20
-4 21 -97 16 -54 -3 -116 -10 -138 -15 -151 -39 -172 -43 -199 -32 l-28 10 22
28 c54 69 98 144 108 184 6 24 22 89 36 146 14 56 26 117 26 134 0 17 11 54
24 82 13 28 34 83 47 121 13 39 35 97 50 130 69 155 68 154 154 286 5 9 42 64
82 122 l71 107 -1029 0 -1029 0 0 -40 c0 -41 -19 -58 -21 -17 0 21 -1 21 -8 2
-5 -11 -4 -30 0 -43 9 -24 11 -97 2 -74 -10 26 -24 11 -18 -20 5 -27 4 -30 -5
-15 -6 10 -9 31 -5 46 3 16 2 32 -4 35 -6 4 -13 29 -17 55 -8 61 -20 82 -34
61 -8 -12 -10 -13 -10 -1 0 8 -2 12 -5 9 -6 -5 22 -132 36 -163 5 -11 15 -47
24 -80 17 -72 35 -135 66 -235 12 -41 24 -81 25 -88 3 -17 31 -114 54 -187 32
-102 81 -306 77 -318 -2 -7 -14 22 -26 63 -12 41 -38 122 -57 180 -19 58 -42
130 -51 160 -9 30 -19 59 -23 63 -12 14 0 -42 33 -148 16 -55 31 -107 32 -115
1 -8 5 -22 7 -30 10 -28 49 -214 64 -300 19 -115 18 -130 -5 -130 -27 0 -34
13 -71 132 -19 59 -36 106 -38 104 -2 -2 8 -50 22 -105 27 -107 33 -161 16
-161 -5 0 -10 7 -10 15 0 8 -7 15 -15 15 -8 0 -15 -7 -15 -16 0 -8 -4 -12 -10
-9 -6 3 -7 -1 -4 -10 4 -9 -1 -24 -10 -34 -10 -10 -15 -29 -13 -42 2 -13 2
-18 0 -11 -3 6 -8 12 -13 12 -14 0 -20 -46 -13 -97 6 -44 5 -47 -10 -34 -10 7
-17 20 -17 28 0 8 -8 22 -17 31 -15 16 -16 14 -10 -33 l7 -50 -22 33 -21 34
-11 -26 c-14 -32 -25 -25 -61 39 -16 28 -34 57 -40 65 -7 8 -33 69 -59 135
-26 66 -56 137 -66 157 -11 20 -20 44 -20 52 0 9 -5 16 -11 16 -7 0 -10 -20
-7 -55 3 -63 -2 -69 -19 -22 -32 90 -134 395 -163 487 -18 58 -44 137 -57 175
-14 39 -33 98 -43 132 -24 80 -31 92 -41 67 -6 -13 -8 -8 -6 19 0 22 -4 42
-12 46 -7 4 -16 30 -20 57 -5 27 -9 43 -10 37 0 -7 -5 -13 -10 -13 -11 0 -23
61 -23 120 0 33 -2 40 -8 25 -7 -18 -8 -19 -15 -2 -7 16 -52 17 -760 17 -593
0 -754 -3 -758 -12 -4 -10 -6 -10 -6 0 -1 7 -16 12 -42 12 -22 0 -39 -3 -37
-8z m513 -1032 c3 -5 1 -10 -4 -10 -6 0 -11 5 -11 10 0 6 2 10 4 10 3 0 8 -4
11 -10z m4392 -262 c-3 -8 -6 -5 -6 6 -1 11 2 17 5 13 3 -3 4 -12 1 -19z
m1893 -462 c0 -9 -30 -14 -35 -6 -4 6 3 10 14 10 12 0 21 -2 21 -4z m-3451
-105 c17 -16 31 -36 31 -44 0 -55 -107 -90 -149 -48 -34 34 -24 99 19 114 36
13 69 6 99 -22z m-246 -75 c31 -15 83 -47 117 -72 l60 -44 51 39 c52 39 72 45
229 70 91 14 143 1 108 -26 -21 -16 -58 -23 -148 -29 -47 -3 -104 -12 -127
-20 -53 -19 -95 -67 -91 -103 3 -25 5 -26 66 -26 34 0 62 -3 62 -8 0 -4 4 -6
9 -3 5 4 16 3 25 0 13 -5 14 -9 5 -20 -6 -8 -16 -14 -21 -14 -5 0 -25 -7 -45
-15 l-36 -15 21 -23 c11 -12 24 -35 28 -51 4 -16 15 -37 25 -47 11 -11 19 -25
19 -33 0 -7 13 -37 28 -67 16 -30 37 -76 47 -104 11 -27 25 -60 33 -73 8 -12
12 -33 10 -47 -3 -14 -2 -25 2 -25 4 0 11 -10 15 -22 4 -15 8 -18 12 -10 3 7
1 20 -3 30 -4 9 -6 21 -5 26 1 5 3 114 5 243 l3 235 -24 11 c-13 6 -22 18 -21
26 2 12 19 17 67 19 35 2 68 -1 72 -5 12 -12 -1 -53 -16 -53 -8 0 -12 -22 -13
-72 0 -69 -6 -141 -16 -198 -2 -14 -5 -30 -5 -37 -1 -7 -11 -21 -23 -33 -15
-14 -17 -20 -7 -20 12 0 14 -34 14 -217 0 -157 -3 -217 -12 -220 -7 -3 -14 14
-18 44 -4 26 -8 53 -9 58 -2 6 1 18 5 27 11 20 0 56 -11 38 -8 -13 -40 46 -65
125 -9 28 -36 91 -59 140 -23 50 -41 96 -38 103 2 6 0 12 -6 12 -5 0 -25 35
-45 78 -38 80 -96 160 -97 132 0 -18 -73 -100 -89 -100 -17 0 5 -47 47 -97 31
-39 37 -54 38 -99 2 -45 -2 -56 -24 -78 -15 -14 -36 -35 -47 -47 -33 -34 -75
-51 -142 -57 -82 -6 -136 14 -197 74 -44 44 -46 48 -46 104 0 32 7 75 17 96
24 57 24 205 0 231 -15 17 -15 53 0 53 15 0 66 -46 80 -73 18 -35 27 -167 11
-167 -5 0 -7 -4 -4 -9 3 -4 -3 -25 -14 -46 -29 -56 -31 -104 -8 -138 34 -48
88 -77 146 -78 63 -2 90 14 127 76 34 59 30 87 -25 156 -49 62 -51 97 -11 158
17 25 28 48 25 53 -3 4 -25 8 -48 8 -47 0 -72 19 -62 46 5 13 21 15 97 13 80
-3 93 -1 105 16 25 34 -3 83 -67 116 -34 17 -164 39 -219 36 -43 -2 -92 20
-88 40 9 50 127 55 221 9z m1687 -377 c0 -6 7 -8 17 -5 10 4 15 4 11 1 -8 -8
22 -39 46 -48 9 -4 15 -11 12 -16 -3 -5 9 -16 27 -24 18 -9 49 -32 69 -51 20
-19 48 -38 62 -42 17 -4 26 -13 26 -25 0 -23 -32 -26 -50 -4 -7 8 -18 14 -24
13 -22 -4 -82 23 -116 52 -51 44 -66 46 -98 13 -43 -43 -82 -98 -82 -115 0
-11 15 -17 50 -22 29 -4 60 -16 77 -30 15 -13 38 -28 51 -35 12 -6 22 -20 22
-31 0 -10 5 -22 10 -25 31 -19 -3 -107 -61 -159 -41 -38 -134 -86 -165 -86 -9
0 -55 -23 -102 -50 -93 -55 -151 -67 -67 -13 28 17 84 55 125 83 41 29 93 60
115 70 48 21 95 63 95 85 0 19 -17 54 -35 72 -43 43 -144 69 -161 42 -3 -6 -1
-22 7 -35 23 -43 8 -41 -81 11 -35 21 -48 36 -53 61 -4 24 -3 25 29 20 32 -7
34 -5 60 49 14 31 32 59 40 62 8 3 14 11 14 19 0 8 5 14 10 14 6 0 15 11 22
25 6 14 23 27 39 30 36 8 36 12 2 48 -27 28 -28 29 -9 43 23 17 66 19 66 3z
m-2900 -269 c0 -25 -70 -95 -157 -157 l-64 -46 7 -56 c4 -31 8 -63 9 -71 1 -8
6 -26 12 -40 5 -14 12 -30 14 -37 2 -6 34 16 70 51 54 51 68 70 74 103 10 63
76 113 150 113 26 0 85 -51 67 -57 -10 -4 -7 -9 9 -17 12 -6 24 -17 27 -25 3
-8 0 -11 -6 -7 -6 3 -13 0 -15 -6 -4 -9 -8 -10 -14 -3 -19 25 -73 55 -97 55
-51 0 -88 -74 -54 -108 15 -15 12 -17 -52 -50 -39 -19 -64 -42 -91 -81 -48
-71 -70 -80 -103 -40 -36 42 -48 93 -44 177 3 80 6 77 -59 51 -18 -7 -35 -10
-38 -7 -13 13 20 45 96 91 44 27 103 70 132 96 65 59 107 91 118 91 5 0 9 -9
9 -20z m222 -277 c-8 -3 -6 -10 8 -21 21 -19 41 -80 21 -68 -6 4 -11 12 -11
18 0 5 -9 21 -20 35 -16 20 -17 29 -9 40 7 7 15 11 18 7 3 -4 0 -9 -7 -11z
m2272 -167 c19 -8 51 -29 72 -48 22 -19 47 -38 57 -41 24 -9 47 -59 29 -65 -7
-2 -9 -9 -6 -14 5 -8 -3 -9 -24 -5 -28 6 -34 3 -46 -22 -8 -15 -27 -36 -41
-45 -25 -16 -26 -21 -20 -67 8 -57 -9 -69 -19 -13 -4 19 -23 52 -42 73 -39 44
-44 66 -14 56 25 -8 63 15 86 51 16 23 16 26 -5 48 -12 13 -38 32 -57 42 l-35
19 -19 -25 c-10 -14 -22 -21 -26 -17 -4 4 -2 13 4 19 7 7 12 19 12 28 0 15 31
37 53 39 4 1 23 -5 41 -13z m-2187 -138 c-3 -8 -6 -5 -6 6 -1 11 2 17 5 13 3
-3 4 -12 1 -19z m169 -98 c20 0 17 -13 -6 -33 -25 -21 -25 -36 -2 -44 30 -11
62 -47 62 -70 0 -13 5 -23 11 -23 5 0 7 6 3 13 -6 9 -4 9 7 1 13 -11 68 -26
142 -41 15 -3 27 -9 27 -13 0 -12 -36 -18 -52 -9 -9 5 -40 11 -70 15 -53 6
-55 5 -102 -35 -52 -45 -76 -44 -55 2 7 15 16 27 21 27 4 0 8 11 8 24 0 16
-13 35 -39 55 -21 17 -42 31 -46 31 -5 0 -28 -16 -52 -36 -33 -27 -41 -39 -31
-45 7 -5 13 -19 13 -31 1 -13 4 -29 9 -37 13 -20 -31 -4 -71 26 -30 22 -49 64
-21 47 7 -5 8 -3 3 5 -7 12 31 52 100 106 15 11 38 32 52 47 25 26 65 41 71
26 2 -5 10 -8 18 -8z m3578 -362 c18 -26 20 -109 5 -178 -5 -25 -10 -52 -11
-60 0 -8 -7 -24 -14 -35 -8 -11 -14 -26 -14 -35 -1 -21 -37 -63 -49 -56 -5 4
-13 1 -17 -5 -4 -8 -3 -9 4 -5 7 4 12 3 12 -2 0 -6 -7 -12 -15 -16 -8 -3 -15
-16 -15 -30 0 -30 -15 -41 -30 -24 -26 32 -61 86 -76 121 -19 43 -27 46 -42
13 -10 -23 -92 -96 -107 -96 -5 0 -16 -7 -26 -16 -11 -10 -40 -16 -86 -17 -66
-2 -69 -3 -70 -27 -2 -41 -34 -120 -49 -120 -8 0 -14 -8 -14 -17 -1 -19 -22
-53 -34 -53 -4 0 1 15 11 33 12 23 18 63 21 143 4 98 1 117 -19 165 -13 30
-26 56 -29 59 -3 3 -14 24 -24 48 -11 23 -23 42 -28 42 -4 0 -8 9 -8 20 0 35
36 23 79 -26 23 -26 41 -52 41 -58 0 -6 9 -22 20 -36 11 -14 20 -34 20 -45 0
-28 19 -45 48 -45 35 0 132 30 132 40 0 5 13 16 29 24 36 19 81 125 81 191 0
38 3 45 20 45 23 0 40 -28 40 -65 0 -15 12 -71 26 -124 25 -92 32 -117 33
-133 2 -16 17 -7 33 20 23 39 69 235 74 312 2 36 4 66 4 68 1 11 32 -3 44 -20z
m-2480 -10 c3 -13 6 -33 6 -45 0 -29 26 -53 56 -53 42 0 103 -38 131 -83 24
-37 27 -52 28 -127 0 -70 4 -91 20 -114 49 -69 52 -80 42 -158 -7 -52 -6 -96
3 -155 12 -73 11 -87 -4 -127 -10 -25 -40 -67 -67 -95 -54 -54 -57 -62 -32
-82 37 -31 54 -94 54 -204 0 -117 12 -145 66 -145 18 0 39 -13 65 -41 36 -38
41 -40 71 -30 17 5 57 13 88 16 49 6 58 4 85 -18 28 -23 31 -24 74 -11 64 19
120 17 155 -6 17 -11 38 -20 48 -20 34 0 57 -37 57 -90 0 -52 5 -59 58 -90 19
-12 32 -28 32 -40 0 -37 -39 -99 -100 -159 -53 -51 -60 -62 -60 -98 0 -99
-135 -216 -282 -243 -28 -6 -53 -12 -56 -14 -6 -6 20 -79 34 -95 10 -11 9 -22
-2 -54 -8 -22 -14 -48 -14 -58 0 -28 -23 -23 -103 20 -40 22 -103 49 -142 61
-220 66 -235 73 -279 111 -24 22 -47 39 -51 39 -4 0 -32 -23 -63 -51 -32 -28
-83 -66 -114 -84 -78 -46 -273 -95 -379 -95 -86 0 -90 4 -60 54 10 17 26 56
36 86 10 30 21 59 26 64 18 20 8 33 -33 45 -81 23 -153 55 -213 95 -65 43 -89
67 -110 107 -12 22 -12 29 2 48 8 13 11 26 7 30 -5 4 -31 24 -58 46 -55 43
-106 117 -106 152 0 22 24 39 83 57 15 5 17 12 11 38 -16 68 -11 90 21 101 17
5 41 20 55 32 41 38 106 41 207 10 18 -6 25 -2 34 19 17 36 62 42 148 20 l70
-18 29 27 c24 23 30 40 36 90 3 33 16 79 27 102 25 48 96 134 158 192 l45 42
-20 36 c-10 21 -42 57 -70 82 -63 55 -93 107 -101 172 -5 44 -2 57 31 116 37
64 37 67 31 143 -5 60 -3 87 10 122 9 25 22 63 29 85 26 89 77 144 151 161 38
8 65 32 65 55 0 23 10 49 20 49 4 0 10 -10 14 -22z m-2674 -53 c0 -46 19 -71
46 -61 9 4 22 3 28 -2 6 -5 31 -14 56 -21 44 -12 61 -18 125 -46 17 -8 46 -17
65 -20 19 -4 43 -15 54 -24 10 -9 20 -15 22 -13 2 1 14 -4 27 -12 12 -9 41
-22 65 -30 23 -8 51 -24 63 -35 l22 -20 -29 -6 c-16 -4 -39 -11 -52 -16 -13
-5 -38 -9 -57 -9 -69 0 -355 -94 -417 -136 -72 -50 -118 -102 -118 -132 0 -15
-4 -32 -10 -38 -6 -6 5 -9 30 -8 28 0 37 -3 33 -13 -3 -8 2 -13 12 -13 9 0 30
-9 45 -20 38 -27 86 -36 102 -19 7 8 27 32 45 54 34 45 116 90 180 100 35 6
43 4 52 -14 10 -18 7 -22 -25 -36 -20 -8 -40 -15 -45 -15 -5 0 -9 -4 -9 -10 0
-5 -5 -10 -10 -10 -6 0 -29 -11 -51 -25 -51 -33 -102 -105 -109 -153 -7 -48
-35 -56 -45 -13 -5 23 -14 33 -33 37 -44 11 -137 65 -215 125 l-27 21 -16 -37
c-15 -36 -16 -37 -35 -19 -20 18 -26 68 -9 79 6 3 10 14 10 23 0 10 9 35 20
57 11 22 20 44 20 50 1 20 56 125 63 119 3 -3 4 22 1 57 -4 52 -2 61 8 51 9
-9 13 -43 13 -102 0 -50 4 -90 8 -90 5 0 22 13 38 29 32 32 175 105 189 96 5
-3 11 -1 15 5 3 5 22 10 41 10 19 0 34 5 34 10 0 6 11 10 24 10 13 0 29 7 36
15 7 9 21 13 31 10 10 -4 23 -4 29 0 22 14 -20 36 -145 76 -71 23 -139 45
-150 50 -58 23 -66 22 -97 -15 -27 -34 -68 -49 -68 -26 0 6 12 28 26 49 14 22
28 59 30 83 9 79 12 86 39 86 23 0 25 -4 25 -43z m-773 -61 c-3 -3 -12 -4 -19
-1 -8 3 -5 6 6 6 11 1 17 -2 13 -5z m7443 -144 c0 -5 -7 -7 -15 -4 -8 4 -15 8
-15 10 0 2 7 4 15 4 8 0 15 -4 15 -10z m-5660 -103 c0 -18 5 -22 32 -21 25 1
37 -5 50 -24 9 -14 14 -31 11 -36 -6 -11 9 2 71 58 16 14 35 26 43 26 7 0 22
5 33 12 10 7 22 9 26 5 9 -9 -25 -36 -46 -37 -30 -1 -89 -113 -90 -172 0 -21
-5 -28 -20 -28 -17 0 -20 7 -20 44 0 37 -4 47 -27 62 -16 10 -43 18 -61 18
-33 1 -34 1 -28 41 3 22 6 50 6 63 0 13 5 20 10 17 6 -3 10 -16 10 -28z m-378
-17 c6 0 7 -7 4 -15 -3 -8 -9 -22 -13 -32 -4 -11 -3 -14 5 -9 8 5 12 -3 12
-24 0 -57 63 -86 76 -36 6 26 42 55 75 61 10 2 32 12 48 21 23 14 38 15 72 8
24 -5 43 -13 42 -18 -1 -6 -26 -16 -55 -23 -64 -16 -107 -57 -133 -129 -22
-58 -32 -66 -65 -58 -60 14 -140 129 -140 203 0 41 21 65 48 56 8 -3 18 -5 24
-5z m355 -146 c4 -21 17 -42 28 -48 31 -17 75 -69 75 -89 0 -10 -5 -27 -11
-38 -8 -16 -13 -18 -25 -8 -8 6 -14 17 -14 23 0 7 -20 32 -45 56 -48 47 -63
87 -45 119 16 31 27 26 37 -15z m-366 -881 c-20 -34 -41 -57 -47 -51 -6 7 15
49 31 60 18 14 26 8 16 -9z m3629 -28 c-7 -8 -18 -15 -24 -15 -6 0 -2 7 8 15
25 19 32 19 16 0z m-3691 -93 c-47 -107 -65 -361 -33 -472 28 -99 28 -100 10
-100 -31 0 -75 42 -82 77 -3 18 -11 36 -16 39 -6 4 -5 10 3 15 12 8 12 10 0
18 -7 5 -11 13 -8 17 9 16 -12 54 -30 54 -35 0 -124 -40 -155 -71 -70 -66 -73
-81 -34 -171 15 -36 15 -38 -4 -48 -12 -6 -30 -8 -41 -5 -23 7 -58 76 -59 113
0 12 -4 22 -8 22 -5 0 -9 19 -10 42 -1 23 -6 44 -11 47 -14 9 2 86 18 86 7 0
25 -21 39 -47 l26 -48 28 28 c15 15 28 32 28 38 0 11 123 75 138 72 4 -1 24 2
45 7 39 8 39 8 35 51 -2 30 1 44 9 44 7 0 10 7 7 15 -3 8 1 24 10 37 9 12 16
30 16 39 0 9 9 24 20 34 11 10 20 28 20 41 0 13 5 26 11 29 5 4 14 18 20 32 5
13 13 22 19 18 5 -3 1 -25 -11 -53z m3551 28 c0 -5 -9 -14 -21 -20 -25 -14
-52 -75 -44 -100 10 -31 83 -41 109 -14 9 8 16 30 16 48 0 44 18 61 42 39 12
-10 18 -30 18 -57 0 -57 -47 -102 -122 -118 -50 -10 -59 -9 -89 9 -30 18 -34
24 -32 60 2 55 35 116 75 142 37 23 48 26 48 11z m767 -122 c32 -12 62 -32 77
-51 l25 -31 35 39 c25 29 37 37 45 29 9 -8 4 -34 -19 -97 -16 -47 -42 -134
-56 -193 -39 -161 -42 -167 -75 -141 -15 11 -16 20 -3 87 7 41 22 101 33 132
27 75 27 88 -3 88 -13 0 -31 11 -41 24 -19 25 -119 65 -132 53 -4 -4 -1 -22 5
-40 7 -19 12 -49 12 -68 0 -47 -50 -122 -93 -140 -40 -17 -128 -14 -142 4 -5
8 -23 21 -40 30 -16 8 -48 34 -70 56 -21 23 -45 41 -52 41 -7 0 -12 5 -10 12
1 6 -9 17 -23 24 -31 16 -76 62 -67 70 9 9 66 -28 73 -48 3 -10 12 -18 20 -18
8 0 14 -6 14 -12 0 -7 11 -14 24 -14 13 -1 52 -19 87 -40 83 -49 164 -59 199
-24 18 18 21 29 15 59 -3 20 -9 55 -12 79 -5 40 -7 42 -39 42 -19 0 -34 4 -34
10 0 23 25 59 44 63 39 9 151 -5 203 -25z m-597 -52 c0 -3 -4 -8 -10 -11 -5
-3 -10 -1 -10 4 0 6 5 11 10 11 6 0 10 -2 10 -4z m-4322 -386 c-3 -197 -5
-202 -57 -152 -26 25 -28 32 -24 82 2 30 8 59 14 65 5 5 9 26 9 47 0 35 2 38
28 38 23 1 24 2 10 11 -10 5 -18 16 -18 23 0 18 24 66 33 66 5 0 7 -81 5 -180z
m7132 16 c0 -2 -7 -7 -16 -10 -8 -3 -12 -2 -9 4 6 10 25 14 25 6z m-3479 -246
c8 -14 22 -36 32 -49 23 -33 21 -70 -5 -93 -13 -11 -43 -39 -68 -62 -63 -59
-88 -75 -111 -69 -16 5 -19 11 -14 35 5 21 2 35 -10 48 -10 11 -15 26 -11 36
5 12 2 15 -10 10 -14 -5 -15 -1 -10 26 l6 33 -58 -1 c-31 0 -60 1 -64 3 -14 7
5 33 21 29 9 -3 48 1 86 8 39 8 72 12 74 10 2 -2 -1 -15 -9 -28 -16 -32 -10
-48 34 -81 40 -31 55 -26 82 28 14 27 14 29 -5 34 -14 3 -21 14 -21 28 0 13
-4 25 -10 27 -12 4 5 79 21 89 8 5 17 -1 24 -14 6 -12 18 -33 26 -47z m-1996
-36 c59 -27 83 -79 99 -206 7 -62 12 -115 10 -117 -7 -8 -60 55 -56 67 2 6 -4
26 -12 43 -11 22 -13 36 -6 44 8 9 6 14 -5 19 -9 3 -13 10 -10 16 3 5 1 10 -5
10 -6 0 -9 4 -6 9 8 12 -51 71 -70 71 -15 0 -34 -39 -34 -70 0 -11 17 -35 37
-55 49 -48 38 -69 -37 -73 -40 -2 -66 -12 -104 -36 -28 -18 -80 -50 -116 -71
-120 -71 -169 -115 -170 -151 -1 -57 219 -177 245 -134 4 6 17 4 36 -6 27 -13
30 -19 24 -46 -11 -49 -61 -148 -92 -180 -29 -30 -77 -58 -100 -58 -21 0 -15
-16 12 -28 29 -13 31 -27 10 -48 -19 -19 -66 -11 -91 17 -9 10 -23 19 -30 19
-7 0 -14 3 -16 8 -1 4 -21 19 -43 34 -22 15 -60 42 -85 59 -25 18 -65 40 -90
49 -25 9 -43 20 -40 25 3 6 32 10 65 10 52 0 68 -5 118 -38 31 -20 61 -37 66
-37 5 0 14 -7 21 -15 14 -17 56 -20 65 -5 3 6 15 10 26 10 10 0 29 12 42 27
12 14 29 34 38 43 36 38 30 108 -7 93 -8 -3 -26 2 -40 12 -14 9 -38 19 -52 21
-15 3 -31 11 -37 18 -5 7 -25 21 -42 31 -18 11 -33 23 -33 26 0 4 -6 14 -13
21 -32 32 -36 51 -17 88 29 56 92 107 203 162 182 90 197 99 197 108 0 5 -5
12 -11 16 -11 7 -6 144 7 165 8 13 83 48 102 49 8 0 29 -7 47 -16z m-2280 -44
c-3 -5 -10 -10 -16 -10 -5 0 -9 5 -9 10 0 6 7 10 16 10 8 0 12 -4 9 -10z
m4574 -239 c18 -22 43 -66 56 -98 22 -54 25 -58 57 -58 29 0 33 -3 30 -24 -2
-25 -43 -67 -74 -77 -10 -3 -18 -9 -18 -13 0 -11 -117 -71 -124 -64 -15 15 -2
41 43 83 42 41 47 51 43 78 -2 18 -8 32 -12 32 -5 0 -11 14 -15 30 -11 48 -37
36 -54 -25 -6 -22 -17 -47 -24 -56 -44 -58 -163 -80 -191 -36 -8 12 -18 34
-21 50 -4 15 -11 27 -16 27 -5 0 -9 9 -9 20 0 25 20 26 27 1 6 -25 77 -63 111
-59 24 3 27 7 24 34 -2 21 2 33 13 37 8 4 15 13 15 21 0 8 7 22 16 30 14 14
13 19 -2 52 l-18 37 29 23 c26 21 31 21 56 9 15 -8 41 -32 58 -54z m2246 -51
c3 -5 -1 -10 -9 -10 -9 0 -16 5 -16 10 0 6 4 10 9 10 6 0 13 -4 16 -10z
m-8025 -340 c0 -5 -4 -10 -10 -10 -5 0 -10 5 -10 10 0 6 5 10 10 10 6 0 10 -4
10 -10z m6046 -8 c13 -9 64 -119 64 -138 0 -8 4 -14 9 -14 5 0 13 -17 18 -37
8 -36 11 -38 48 -38 21 0 40 -5 42 -11 5 -16 -24 -43 -55 -51 -33 -8 -92 -44
-152 -93 -25 -21 -60 -44 -78 -53 l-33 -16 22 37 c20 34 49 63 133 134 22 19
27 29 21 44 -4 10 -7 29 -6 42 2 20 -8 27 -31 23 -5 0 -8 4 -8 9 0 28 -34 3
-67 -49 -20 -33 -48 -64 -61 -70 -53 -25 -123 -6 -141 38 -12 29 -18 108 -8
117 8 8 48 -35 67 -72 23 -43 50 -41 83 6 15 22 27 47 27 55 0 31 68 140 90
144 3 0 10 -3 16 -7z m-6016 -68 c0 -8 -5 -12 -10 -9 -6 4 -8 11 -5 16 9 14
15 11 15 -7z m8850 -8 c0 -11 -19 -15 -25 -6 -3 5 1 10 9 10 9 0 16 -2 16 -4z
m-4705 -26 c3 -5 1 -10 -4 -10 -6 0 -11 5 -11 10 0 6 2 10 4 10 3 0 8 -4 11
-10z m85 -62 c0 -5 -9 -3 -20 4 -11 7 -20 16 -20 20 0 5 9 3 20 -4 11 -7 20
-16 20 -20z m215 -55 c53 -11 104 -14 157 -10 42 4 79 3 81 -1 7 -11 -11 -52
-23 -52 -6 0 -18 -7 -27 -15 -8 -9 -23 -14 -32 -11 -57 15 -72 16 -65 5 5 -9
2 -10 -12 -5 -50 21 -54 20 -75 -30 -16 -35 -22 -68 -21 -123 0 -70 1 -77 29
-101 24 -22 43 -28 101 -33 86 -7 96 -11 81 -38 -20 -39 -51 -41 -226 -12 -28
5 -31 7 -23 28 7 18 4 30 -9 47 -22 28 -40 168 -21 168 6 0 9 4 6 8 -3 5 4 19
15 31 38 40 27 121 -16 121 -7 0 -20 9 -29 19 -10 11 -25 22 -35 24 -37 9 70
-6 144 -20z m3532 -99 c-3 -3 -12 -4 -19 -1 -8 3 -5 6 6 6 11 1 17 -2 13 -5z
m-79 -36 c-6 -18 -28 -21 -28 -4 0 9 7 16 16 16 9 0 14 -5 12 -12z m-7444 -52
c-10 -8 -21 -12 -24 -10 -5 6 21 24 34 24 6 0 1 -6 -10 -14z m7176 -1 c0 -12
9 -15 37 -13 30 2 38 -1 41 -16 4 -17 0 -18 -31 -13 -50 8 -103 57 -62 57 8 0
15 -7 15 -15z m121 5 c6 0 7 -4 4 -10 -10 -16 -45 -12 -45 6 0 11 5 14 16 10
9 -3 20 -6 25 -6z m592 3 c-7 -2 -19 -2 -25 0 -7 3 -2 5 12 5 14 0 19 -2 13
-5z m-7958 -43 c-3 -5 -13 -10 -21 -10 -8 0 -14 5 -14 10 0 6 9 10 21 10 11 0
17 -4 14 -10z m-165 -34 c0 -11 -19 -15 -25 -6 -3 5 1 10 9 10 9 0 16 -2 16
-4z m123 -3 c-7 -2 -19 -2 -25 0 -7 3 -2 5 12 5 14 0 19 -2 13 -5z m-66 -35
c-3 -8 -6 -5 -6 6 -1 11 2 17 5 13 3 -3 4 -12 1 -19z m7413 11 c0 -6 -9 -13
-20 -16 -11 -3 -20 -12 -20 -19 0 -8 -10 -14 -22 -14 l-21 0 21 19 c12 10 22
23 22 30 0 6 9 11 20 11 11 0 20 -5 20 -11z m-8060 -14 c0 -8 -4 -15 -10 -15
-5 0 -10 7 -10 15 0 8 5 15 10 15 6 0 10 -7 10 -15z m620 7 c0 -10 -22 -32
-32 -32 -13 0 -9 28 5 33 19 8 27 8 27 -1z m-57 -59 c-2 -6 -12 -14 -21 -17
-9 -3 -27 -13 -39 -22 -14 -10 -23 -12 -23 -5 0 6 11 17 25 23 33 15 32 26 -2
31 -16 3 -7 4 18 3 31 -1 45 -5 42 -13z m-117 -8 c-8 -8 -19 -15 -25 -15 -6 0
-11 7 -11 15 0 9 10 15 26 15 23 0 24 -2 10 -15z m4272 -42 c-16 -2 -40 -2
-55 0 -16 2 -3 4 27 4 30 0 43 -2 28 -4z m-93 -13 c3 -5 -1 -10 -9 -10 -22 0
-20 -8 8 -45 44 -57 298 -171 365 -163 32 4 35 -14 7 -64 -16 -30 -26 -38 -48
-38 -21 0 -28 5 -28 18 0 14 -15 23 -60 37 -33 10 -60 22 -60 27 0 4 -7 8 -16
8 -29 0 -188 135 -178 151 2 4 -5 17 -17 28 -14 13 -19 26 -14 40 7 22 39 29
50 11z m4842 -156 c-3 -3 -12 -4 -19 -1 -8 3 -5 6 6 6 11 1 17 -2 13 -5z
m-5460 -746 c-3 -8 -6 -5 -6 6 -1 11 2 17 5 13 3 -3 4 -12 1 -19z m3868 -97
c3 -5 1 -12 -5 -16 -5 -3 -10 1 -10 9 0 18 6 21 15 7z m-5935 -5 c0 -3 -4 -8
-10 -11 -5 -3 -10 -1 -10 4 0 6 5 11 10 11 6 0 10 -2 10 -4z m4030 -746 c0 -5
-5 -10 -11 -10 -5 0 -7 5 -4 10 3 6 8 10 11 10 2 0 4 -4 4 -10z m-2074 -161
c3 -19 6 -41 6 -49 0 -8 5 -20 10 -27 5 -7 7 -17 3 -22 -3 -6 1 -23 8 -38 13
-24 13 -30 1 -41 -21 -19 -34 -6 -34 33 0 18 -7 41 -16 50 -11 11 -13 19 -6
28 7 8 7 18 2 27 -6 8 -10 29 -10 46 0 58 26 53 36 -7z m-49 -51 c-3 -8 -6 -5
-6 6 -1 11 2 17 5 13 3 -3 4 -12 1 -19z m13 -78 c0 -5 -4 -10 -10 -10 -5 0
-10 5 -10 10 0 6 5 10 10 10 6 0 10 -4 10 -10z m190 -64 c0 -11 -19 -15 -25
-6 -3 5 1 10 9 10 9 0 16 -2 16 -4z m86 -52 c-3 -9 -6 -18 -6 -20 0 -2 -7 -4
-15 -4 -18 0 -19 6 -2 25 16 19 31 19 23 -1z m-179 -28 c23 -26 15 -46 -19
-46 -20 0 -23 11 -7 27 8 8 8 13 0 17 -13 8 -15 26 -3 26 5 0 18 -11 29 -24z
m47 9 c3 -8 1 -15 -4 -15 -6 0 -10 7 -10 15 0 8 2 15 4 15 2 0 6 -7 10 -15z
m261 -35 c-3 -5 -11 -10 -16 -10 -6 0 -7 5 -4 10 3 6 11 10 16 10 6 0 7 -4 4
-10z m495 -10 c0 -5 -5 -10 -11 -10 -5 0 -7 5 -4 10 3 6 8 10 11 10 2 0 4 -4
4 -10z m-500 -29 c0 -10 -30 -24 -37 -17 -3 3 -2 9 2 15 8 13 35 15 35 2z
m540 -31 c-19 -12 -30 -12 -30 -1 0 10 31 20 40 14 2 -2 -2 -8 -10 -13z"/>
<path d="M4754 7716 c-16 -41 12 -64 62 -52 35 9 30 35 -11 52 -42 17 -44 17
-51 0z"/>
<path d="M5090 6809 c0 -18 2 -19 15 -9 15 12 12 30 -6 30 -5 0 -9 -10 -9 -21z"/>
<path d="M4950 5021 c-11 -22 -8 -26 38 -36 41 -8 42 7 3 35 -30 20 -30 20
-41 1z"/>
<path d="M5265 4479 c-4 -6 -9 -31 -12 -55 -6 -57 -28 -111 -50 -123 -10 -5
-31 -10 -48 -12 -34 -3 -135 10 -150 20 -15 9 -135 51 -180 63 -22 6 -79 23
-127 39 -104 34 -103 34 -130 9 -28 -26 -36 -25 -121 5 -86 31 -98 29 -90 -21
5 -29 2 -40 -11 -50 -15 -11 -25 -9 -62 9 -47 23 -59 20 -49 -12 5 -15 15 -21
37 -21 22 0 44 -13 80 -45 38 -34 58 -45 83 -45 31 0 65 -25 65 -48 0 -7 16
-12 40 -12 22 0 40 -4 40 -9 0 -4 24 -17 53 -28 53 -19 53 -19 80 1 27 20 29
20 88 -11 3 -2 21 10 40 26 72 64 108 64 188 1 56 -44 63 -47 81 -25 7 8 23
15 35 15 13 0 25 -7 29 -15 8 -22 35 -18 95 15 30 17 68 30 85 30 17 0 40 7
50 15 11 8 29 12 42 9 28 -7 109 57 118 93 4 15 14 23 27 23 24 0 69 46 69 71
0 27 -13 24 -60 -16 -66 -55 -109 -41 -95 31 l6 37 -31 -7 c-17 -3 -46 -12
-63 -20 -79 -35 -101 -28 -111 34 -6 39 -26 53 -41 29z"/>
<path d="M4020 4344 c0 -3 12 -27 27 -53 26 -47 67 -83 111 -96 19 -5 22 -3
22 18 0 13 -9 36 -20 50 -35 45 -140 105 -140 81z"/>
<path d="M5764 4303 c-64 -32 -82 -114 -19 -85 25 12 65 66 65 90 0 15 -7 15
-46 -5z"/>
<path d="M4242 4234 c-22 -45 -22 -47 -5 -82 24 -48 41 -52 45 -10 2 18 8 33
13 32 6 0 30 -33 53 -72 26 -44 56 -78 73 -88 l30 -15 -7 28 c-16 69 -95 196
-129 210 -8 2 -17 13 -20 24 -10 31 -30 22 -53 -27z"/>
<path d="M5577 4219 c-14 -24 -37 -56 -51 -71 -38 -39 -66 -90 -66 -117 0 -24
0 -24 21 -5 11 10 28 31 37 46 17 29 37 37 44 16 6 -17 34 -3 53 26 27 41 30
97 8 125 l-19 24 -27 -44z"/>
<path d="M3980 4240 c-13 -9 -12 -12 4 -25 11 -8 33 -15 49 -15 27 0 28 2 16
18 -27 34 -43 39 -69 22z"/>
<path d="M4876 4118 c-41 -37 -49 -50 -53 -89 -6 -57 26 -140 63 -160 36 -19
46 1 40 74 -5 44 -3 57 8 57 21 0 49 -78 41 -117 -7 -41 5 -42 45 -5 39 34 52
86 35 136 -12 35 -98 138 -121 144 -6 2 -32 -16 -58 -40z"/>
<path d="M4511 4124 c-46 -38 -44 -90 6 -145 36 -40 90 -75 100 -65 3 3 -4 18
-16 34 -19 28 -28 62 -16 62 3 0 23 -18 44 -39 37 -37 128 -97 135 -90 9 10
-52 141 -79 168 -25 26 -129 101 -140 101 -2 0 -17 -12 -34 -26z"/>
<path d="M5320 4124 c-8 -8 -34 -27 -59 -41 -52 -30 -101 -72 -102 -87 0 -6
-11 -33 -24 -61 -18 -39 -21 -51 -10 -53 38 -9 160 90 170 139 4 16 11 29 16
29 13 0 11 -54 -3 -85 -15 -33 -6 -40 30 -21 33 17 41 40 44 118 2 67 -31 100
-62 62z"/>
<path d="M4079 4120 c-22 -5 -22 -6 4 -23 34 -22 112 -34 122 -18 18 30 -63
56 -126 41z"/>
<path d="M4726 4111 c-9 -14 29 -55 42 -47 9 5 7 14 -4 32 -17 25 -29 30 -38
15z"/>
<path d="M5732 4098 c-39 -10 -33 -33 7 -23 14 3 30 10 34 15 14 13 -6 18 -41
8z"/>
<path d="M5127 4093 c-4 -3 -7 -18 -7 -32 l0 -25 21 21 c12 11 18 26 15 32 -8
12 -19 14 -29 4z"/>
<path d="M4117 4013 c-30 -8 -14 -27 39 -46 48 -18 185 -29 199 -15 13 13 -21
49 -55 58 -35 10 -149 12 -183 3z"/>
<path d="M5554 3989 c-33 -9 -51 -34 -33 -45 14 -8 144 5 178 18 l26 10 -30
14 c-34 15 -95 16 -141 3z"/>
<path d="M4415 3883 c-27 -2 -57 -6 -65 -9 -25 -9 27 -31 93 -38 49 -6 62 -4
92 14 60 37 37 44 -120 33z"/>
<path d="M5375 3871 c-8 -14 24 -41 48 -41 12 0 29 5 37 10 13 9 12 12 -4 25
-22 17 -72 20 -81 6z"/>
<path d="M4569 3832 c-63 -40 -138 -127 -182 -210 -41 -79 -42 -78 49 -62 113
20 238 77 382 172 83 56 92 74 30 64 -57 -9 -131 -48 -187 -98 -50 -45 -146
-94 -201 -103 l-35 -6 29 18 c49 31 181 116 244 158 34 22 61 43 62 48 0 4
-11 12 -24 17 -13 5 -27 14 -31 19 -13 22 -89 12 -136 -17z"/>
<path d="M5162 3830 l-44 -20 54 -36 c29 -20 70 -54 92 -77 21 -23 56 -49 78
-59 22 -10 60 -31 85 -48 49 -33 66 -32 58 6 -3 13 -7 35 -10 49 -7 33 -98
140 -144 169 -54 35 -116 40 -169 16z"/>
<path d="M4985 3790 c-7 -11 20 -37 58 -56 79 -42 208 -72 175 -41 -51 46
-221 117 -233 97z"/>
<path d="M3130 9530 c0 -5 5 -10 11 -10 5 0 7 5 4 10 -3 6 -8 10 -11 10 -2 0
-4 -4 -4 -10z"/>
<path d="M8181 9086 c-8 -10 -9 -16 -1 -21 5 -3 13 1 16 10 9 22 -1 29 -15 11z"/>
<path d="M3921 9034 c0 -11 3 -14 6 -6 3 7 2 16 -1 19 -3 4 -6 -2 -5 -13z"/>
<path d="M8066 9011 c-4 -7 -5 -15 -2 -18 9 -9 19 4 14 18 -4 11 -6 11 -12 0z"/>
<path d="M7985 8986 c-6 -13 -4 -21 3 -24 7 -2 12 -11 12 -20 0 -13 3 -13 12
-4 9 9 10 15 2 20 -7 4 -14 16 -16 27 -5 20 -5 20 -13 1z"/>
<path d="M1920 8950 c0 -13 30 -13 50 0 11 7 7 10 -17 10 -18 0 -33 -4 -33
-10z"/>
<path d="M2 8543 c3 -34 6 -37 53 -49 28 -7 73 -15 100 -19 l50 -6 -33 20
c-18 12 -64 36 -103 56 l-70 34 3 -36z"/>
<path d="M800 8145 c0 -15 29 -35 51 -35 7 0 2 11 -11 25 -27 28 -40 32 -40
10z"/>
<path d="M9137 8140 c-9 -11 -25 -20 -34 -21 -15 0 -15 -2 2 -9 14 -5 26 -2
43 13 22 21 29 37 14 37 -4 0 -15 -9 -25 -20z"/>
<path d="M880 8094 c0 -8 5 -12 10 -9 6 4 8 11 5 16 -9 14 -15 11 -15 -7z"/>
<path d="M9045 8014 l-30 -13 38 -1 c20 0 37 4 37 9 0 17 -14 19 -45 5z"/>
<path d="M888 8003 c7 -3 16 -2 19 1 4 3 -2 6 -13 5 -11 0 -14 -3 -6 -6z"/>
<path d="M920 7987 c0 -21 12 -28 27 -16 10 9 13 8 13 -5 0 -9 5 -16 10 -16
13 0 12 11 -4 33 -16 20 -46 23 -46 4z"/>
<path d="M8187 7944 c-13 -13 -7 -24 14 -24 11 0 19 5 17 12 -5 14 -22 21 -31
12z"/>
<path d="M1518 5978 c6 -6 18 -8 28 -6 14 3 12 5 -9 10 -19 3 -25 2 -19 -4z"/>
<path d="M8658 5883 c-26 -2 -52 -11 -59 -20 -12 -13 -7 -14 46 -10 83 8 95
11 98 22 2 11 -18 13 -85 8z"/>
<path d="M8960 3960 c0 -5 5 -10 11 -10 5 0 7 5 4 10 -3 6 -8 10 -11 10 -2 0
-4 -4 -4 -10z"/>
<path d="M948 3953 c7 -3 16 -2 19 1 4 3 -2 6 -13 5 -11 0 -14 -3 -6 -6z"/>
<path d="M8538 3303 c7 -3 16 -2 19 1 4 3 -2 6 -13 5 -11 0 -14 -3 -6 -6z"/>
<path d="M480 2295 c0 -8 5 -15 10 -15 6 0 10 7 10 15 0 8 -4 15 -10 15 -5 0
-10 -7 -10 -15z"/>
<path d="M927 1943 c-13 -12 -7 -23 13 -23 14 0 20 -7 20 -21 0 -24 23 -21 28
4 2 10 -3 17 -12 17 -9 0 -16 7 -16 15 0 15 -21 21 -33 8z"/>
<path d="M906 1865 c-16 -24 -16 -25 9 -25 18 0 25 5 25 19 0 31 -16 33 -34 6z"/>
<path d="M3921 1774 c0 -11 3 -14 6 -6 3 7 2 16 -1 19 -3 4 -6 -2 -5 -13z"/>
<path d="M823 1729 c-25 -9 -30 -19 -10 -19 15 0 43 17 37 23 -3 3 -15 1 -27
-4z"/>
<path d="M9581 1491 c-10 -6 -10 -10 -1 -16 13 -8 24 -1 19 14 -3 6 -10 7 -18
2z"/>
<path d="M8000 896 c0 -9 -5 -16 -12 -16 -6 0 -9 -2 -6 -5 3 -3 15 -2 27 3 20
7 21 9 7 21 -14 11 -16 11 -16 -3z"/>
<path d="M3891 864 c0 -11 3 -14 6 -6 3 7 2 16 -1 19 -3 4 -6 -2 -5 -13z"/>
<path d="M1894 848 c-32 -35 -37 -48 -20 -48 9 0 16 7 16 15 0 7 7 18 16 23 9
5 15 15 13 21 -3 8 -12 4 -25 -11z"/>
<path d="M6041 844 c0 -11 3 -14 6 -6 3 7 2 16 -1 19 -3 4 -6 -2 -5 -13z"/>
<path d="M1793 809 c4 -15 0 -23 -13 -26 -18 -5 -35 -31 -26 -40 2 -2 17 8 33
24 27 27 34 63 11 63 -6 0 -8 -9 -5 -21z"/>
<path d="M6050 810 c0 -8 5 -22 10 -30 9 -13 10 -13 10 0 0 8 -5 22 -10 30 -9
13 -10 13 -10 0z"/>
<path d="M3774 268 c-4 -13 -8 -30 -9 -38 -1 -8 -5 -23 -9 -33 -5 -9 -6 -30
-4 -47 2 -16 0 -26 -5 -23 -5 3 -6 -3 -3 -15 4 -12 2 -31 -4 -43 -15 -28 7
-53 41 -46 l24 4 -22 8 c-22 7 -32 25 -14 25 13 0 21 53 9 68 -7 8 -7 16 2 27
6 8 9 19 5 25 -4 6 -2 16 3 23 10 12 10 73 0 83 -4 3 -9 -5 -14 -18z m-12
-190 c-8 -8 -9 -4 -5 13 4 13 8 18 11 10 2 -7 -1 -18 -6 -23z"/>
</g>
</svg>
