<?xml version="1.0" encoding="UTF-8"?>
<!DOCTYPE svg PUBLIC "-//W3C//DTD SVG 1.1//EN" "http://www.w3.org/Graphics/SVG/1.1/DTD/svg11.dtd">
<!-- Creator: CorelDRAW -->
<?xml-stylesheet href="TAM-new.css" type="text/css"?>
<svg xmlns="http://www.w3.org/2000/svg" xml:space="preserve" width="8.5in" height="11in" version="1.1" style="shape-rendering:geometricPrecision; text-rendering:geometricPrecision; image-rendering:optimizeQuality; fill-rule:evenodd; clip-rule:evenodd"
viewBox="0 0 8500 11000"
 xmlns:xlink="http://www.w3.org/1999/xlink"
 xmlns:xodm="http://www.corel.com/coreldraw/odm/2003">
 <g id="Layer_x0020_1">
  <metadata id="CorelCorpID_0Corel-Layer"/>
  <path class="fil0" d="M3450.48 2385.07c0,16.17 -3.83,31.17 -11.67,44.83 -7.83,13.67 -17.83,25.5 -29.83,35.67 -12,10.17 -25.83,17.83 -41.5,23.5 -15.67,5.5 -31.33,8.17 -46.83,8.17 -9.17,0 -19.67,-1.83 -31.83,-5.83 -12,-3.83 -23.33,-9.83 -34.17,-18 -10.67,-8.17 -19.83,-18.33 -27.33,-30.83 -7.5,-12.33 -11.17,-27 -11.17,-43.83 0,-15.67 2.67,-29.83 8.33,-42.5 5.5,-12.67 12.17,-23.67 20,-32.83 7.83,-9 15.83,-16 24.33,-20.83 8.5,-5 15.67,-7.33 21.5,-7.33 -1.33,-1.33 -2.33,-3.33 -3,-6 -0.5,-1.83 -1,-3.83 -1.33,-5.83 -0.33,-1.83 -0.5,-4.5 -0.5,-7.83 0,-7.17 2.17,-13 6.83,-17.5 4.5,-4.5 9.5,-9.17 15.17,-13.67 5.5,-4.5 10.5,-9.83 15,-15.67 4.67,-5.83 7,-13.67 6.83,-23.33 0.17,-2 -0.17,-4.33 -0.83,-7 -0.67,-2.5 -1.33,-5.5 -2,-8.67 -0.67,-3.33 -1.33,-6.83 -2,-10.83 15.67,0 25.33,3.67 28.83,10.83 3.67,7.17 5.67,16 6.33,26.83 0.67,10.67 2.33,22.17 4.83,34.17 2.67,12 10.83,23 24.5,32.67 7.83,5.33 15.5,10 23,14.17 7.5,4.33 14,9.83 19.5,16.67 5.5,6.83 10,15.83 13.67,26.83 3.5,11 5.33,25.67 5.33,44zm-48.83 16.5c0,-16.83 -7.83,-31.83 -23.5,-44.83 -15.5,-13 -35.67,-19.5 -60.5,-19.5 -30.5,0 -45.83,11 -45.83,33.17 0,9 2,17.83 6.33,26.33 4.17,8.5 10,15.83 17.5,22 7.5,6.17 16.33,11.17 26.5,15.17 10,3.83 21,5.83 32.67,5.83 13,0 24,-3.33 33.17,-9.83 9.17,-6.5 13.67,-16 13.67,-28.33z"/>
  <path class="fil1" d="M3515.98 2488.57c0,13.67 -5,29 -14.67,45.83 -9.83,17 -23.17,32.83 -40.17,47.83 -16.83,15 -36.5,27.67 -59,38.17 -22.5,10.33 -46,15.5 -70.83,15.5 -21.5,0 -43.67,-5.83 -66.33,-17.5 -22.83,-11.67 -43.5,-26 -62,-43 -18.67,-16.83 -33.67,-34.67 -45.5,-53.17 -11.67,-18.5 -17.5,-34.33 -17.5,-47.33 0,-2 0.5,-4.17 1.5,-6.33 0.83,-2.33 3,-3.5 6.33,-3.5 5.83,0 13.83,4.5 23.83,13.67 10.17,9.17 22.83,19 38.17,29.83 15.17,10.67 33,20.5 53.17,29.33 20.17,8.67 43.67,13.17 70.33,13.17 26,0 48.83,-3.67 68.33,-10.83 19.5,-7.17 36.33,-15 50.33,-23.33 14,-8.5 25.5,-16.33 34.67,-23.5 9.17,-7.17 16.5,-10.67 22.5,-10.67 3.17,0 5.17,0.33 5.83,0.83 0.67,0.67 1,2.33 1,5z"/>
  <path class="fil2" d="M3548.15 2670.24l-32.17 70.17c-7.17,15.67 -28,23.5 -62.5,23.5l-266.67 0c-9.17,0 -16,2 -20.5,5.83 -4.5,4 -8.17,8.5 -10.67,13.67 -2.67,5.33 -4.17,10.5 -4.5,15.67 -0.33,5.17 -0.5,9.5 -0.5,12.67l32.33 209c3.83,-6.5 11.67,-16.17 23.33,-28.83 11.83,-12.67 27,-25.5 46,-38.5 18.83,-13 41.33,-24.5 67.33,-34.17 26,-9.83 55.33,-14.67 87.83,-14.67 28,0 52.33,4.17 72.83,12.67 20.5,8.5 37.5,19.5 51.17,33.17 13.67,13.67 23.83,28.83 30.33,45.5 6.5,16.5 9.83,33 9.83,49.33 0,27.33 -4.67,55.33 -13.67,84 -9.17,28.5 -21.33,57.5 -36.67,86.83 -15.33,29.33 -32.5,59 -51.83,89.33 -19.17,30.33 -38.83,60.67 -59,91.33l64.5 0 0 16.67c0,7.17 -1.67,14.83 -5,23.33 -3.17,8.5 -7.17,13 -11.67,13.67 3.17,5.17 6.83,12.33 10.67,21.5 4,9.17 6,17.33 6,24.5 0,13.67 -3.5,28.17 -10.33,43.33 -6.83,15.33 -17.17,28.17 -30.83,38.67 11.83,0 24,4 36.67,12.17 12.67,8.17 25.17,19.17 37.17,33.17 12,14 23,30.67 33.17,49.83 10.17,19.17 18.67,39.5 25.83,61 0,3.33 -1.17,6.33 -3.33,9.33 -2.33,3 -5.33,4.33 -9.33,4.33 -3.83,0 -9.33,-4.5 -16.5,-13.67 -10.5,-13 -20.33,-24 -29.33,-33.17 -9.17,-9.17 -19.33,-16.5 -30.33,-22.5 -11,-5.83 -23.67,-10 -38,-12.67 -14.33,-2.5 -32.33,-3.83 -53.83,-3.83 -8.33,0 -19,1.17 -31.67,3.33 -12.67,2.33 -26.83,5 -42.5,8.33 0,-3.83 0.33,-11.17 1,-22 0.67,-10.67 3.33,-21.5 8.33,-32.17 4.83,-10.83 12.33,-20.33 22.33,-28.83 10.17,-8.5 24.67,-12.67 43.5,-12.67 9.83,-6.5 18.17,-13.83 25,-22 6.83,-8.17 10.17,-16.17 10.17,-24 0,-13.67 -6,-24 -18,-31.17 -12.17,-7.17 -32.17,-10.83 -60.17,-10.67l-30.17 0c-20.83,-0.17 -39.17,3.5 -54.67,10.67 -15.67,7.17 -23.5,17.5 -23.5,31.17 0,10.5 1.33,19.67 3.83,27.33 2.67,7.83 5.5,14.67 8.33,20.67 3,5.83 5.67,11.33 8.33,16.5 2.67,5.17 3.83,10.5 3.83,15.67 0,7.83 -1.5,17 -4.83,27.83 -3.17,10.67 -7.17,21.33 -11.67,31.67 -4.67,10.5 -9.67,19.33 -15.17,26.5 -5.5,7.17 -10.5,10.67 -15.17,10.67 -3.83,0 -6.5,-1 -7.83,-3 -1.17,-1.83 -1.83,-3.5 -1.83,-4.83 0,-1.33 0.33,-2.67 0.83,-3.83 0.67,-1.33 1,-2.67 1,-4 0,-13 -1.83,-25.33 -5.83,-37 -3.83,-11.83 -8.17,-22.83 -12.67,-33.33 -4.5,-10.33 -8.83,-19.83 -12.67,-28.33 -4,-8.33 -5.83,-16.17 -5.83,-23.33 0,-23.5 4.67,-45.83 14.17,-67 9.33,-21.17 21.33,-39.67 35.67,-55.67 14.17,-15.83 29.67,-28.5 46.33,-38 16.5,-9.5 31.67,-14.17 45.33,-14.17l54.67 0c10.5,-21.5 22.17,-46 35.17,-73.67 13.17,-27.67 25.5,-55.17 37.17,-82.67 11.67,-27.33 21.5,-52.17 29.33,-74.67 7.83,-22.5 11.67,-39.17 11.67,-50.33 0,-15.5 -2.67,-30.5 -8.33,-44.83 -5.5,-14.33 -13.5,-26.83 -23.83,-37.67 -10.5,-10.67 -23,-19.17 -37.67,-25.33 -14.67,-6.17 -30.67,-9.33 -48.33,-9.33 -13.67,0 -30,2.67 -48.83,7.83 -18.83,5.17 -37,11.5 -54.67,18.67 -17.5,7.17 -32.5,14.67 -44.83,22.83 -12.5,8.17 -18.67,15.5 -18.67,22l4 38.17c1.17,11 3,23.67 5.33,38 2.17,14.33 3.33,27 3.33,38.17 0,18.83 -5.5,28.33 -16.5,28.33 -4.67,0 -7.83,-1.5 -9.83,-4.5 -2,-2.83 -4.17,-8.33 -6.83,-16l-127.83 -413.17c0,-3.83 2.33,-11.67 7.17,-23.5 5,-11.67 10.67,-23.83 17.17,-36.5 6.5,-12.83 12.83,-24 19,-33.67 6.17,-9.83 11,-14.67 14.17,-14.67l446.33 0z"/>
 </g>
</svg>
