<?xml version="1.0" encoding="utf-8"?>
<!-- Generator: Adobe Illustrator 16.0.3, SVG Export Plug-In . SVG Version: 6.00 Build 0)  -->
<svg version="1.1" xmlns="http://www.w3.org/2000/svg" xmlns:xlink="http://www.w3.org/1999/xlink" width="300px" height="300px" fill="#FFD200" stroke="#000">
  <defs>
    <path id="s" d="M131.034,139.414C125.227,160.621,152.009,166.133,150,150c-9.44-4.218-4.55-12.675-0.85-14.735c5.125-2.854,12.428-3.557,19.513,3.614c-1.837-3.09-4.468-5.766-7.802-7.691C150.471,125.19,137.125,128.688,131.034,139.414z"/>
  </defs>
  <circle cx="150" cy="150" r="27.52"/>
  <g id="elm" stroke-linecap="round" stroke-linejoin="round">
    <path d="M145.234,17.834c1.905,8.484,1.823,28.596-2.219,38.405c2.909,7.271,2.173,19.06-0.598,33.37L150,88.245V17.577L145.234,17.834z"/>
    <path d="M154.766,17.834c-1.904,8.484-1.822,28.596,2.219,38.405c-2.907,7.271-2.172,19.06,0.599,33.37L150,88.245V17.577L154.766,17.834z"/>
    <path fill="#ff993a" d="M146.507,56.24l3.493,4.7 l3.494-4.699H150L146.507,56.24L146.507,56.24z"/>
    <path fill="#ff993a" d="M150,51.538l-3.493,4.702 H150h3.494L150,51.538z"/>
    <path d="M150,5.5l-5.748,11.734 L150,21.888l5.748-4.652L150,5.5z"/>
    <path d="M144.252,17.236 l3.189-0.063H150h2.559l3.189,0.063"/>
    <path d="M150,12.885c-0.853,1.43-1.708,2.855-2.559,4.288L150,19.541l2.557-2.368C151.706,15.74,150.854,14.315,150,12.885z"/>
    <path d="M150,88.244l-31.153,5.801 l17.574,27.013L150,118.66l13.576,2.396l17.576-27.013L150,88.244z"/>
    <path d="M135.969,92.877c-0.776,0.233-1.187,1.125-1.683,1.677c-2.582,2.875-2.915,6.389-1.999,9.728c1.077,3.93,4.025,6.784,6.789,9.724c1.612-0.426,0.284-0.065,1.903-0.464c1.622-0.389,0.276-0.101,1.905-0.459c1.11-3.878,2.42-7.768,1.578-11.753c-0.715-3.388-2.621-6.357-6.232-7.731C137.537,93.333,136.767,92.73,135.969,92.877L135.969,92.877z"/>
    <path d="M136.737,96.043c-0.435,0.145-0.805,0.771-0.972,1.234c-0.602,1.669-1.535,5.095-0.688,7.305c0.746,1.944,3.604,6.488,5.389,9.082c0.335-0.093,0.235-0.063,0.188-0.052c-0.048,0.017-0.018,0.013,0.325-0.072c0.343-0.081,0.372-0.093,0.322-0.083c-0.046,0.01-0.151,0.029,0.188-0.041c0.399-3.123,0.858-8.472,0.63-10.542c-0.259-2.354-2.654-4.972-3.954-6.179 C137.806,96.361,137.189,95.972,136.737,96.043z"/>
    <path d="M137.988,101.205 l3.337,13.76"/>
    <path d="M164.031,92.877c0.775,0.233,1.187,1.125,1.682,1.677c2.582,2.875,2.915,6.389,2,9.728c-1.078,3.93-4.025,6.784-6.789,9.724c-1.611-0.426-0.285-0.065-1.904-0.464c-1.621-0.389-0.274-0.101-1.903-0.459c-1.11-3.878-2.421-7.768-1.578-11.753c0.715-3.388,2.621-6.357,6.231-7.731C162.463,93.333,163.232,92.73,164.031,92.877L164.031,92.877z"/>
    <path d="M163.264,96.043c0.435,0.145,0.805,0.771,0.971,1.234c0.604,1.669,1.535,5.095,0.688,7.305c-0.745,1.944-3.604,6.488-5.389,9.082c-0.336-0.093-0.234-0.063-0.188-0.052c0.049,0.017,0.019,0.013-0.324-0.072c-0.344-0.081-0.371-0.093-0.322-0.083c0.047,0.01,0.15,0.029-0.188-0.041c-0.399-3.123-0.858-8.472-0.631-10.542c0.259-2.354,2.654-4.972,3.954-6.179 C162.193,96.361,162.811,95.972,163.264,96.043z"/>
    <path d="M162.012,101.205 l-3.337,13.76"/>
    <path d="M149.979,92.477c-1.606,0.088-2.737,0.139-3.992,0.905c-2.223,1.356-4.989,3.046-6.187,4.834c-1.154,1.844-1.631,4.294-1.257,7.921l0.494,4.79 l1.04,7.81c3.293-0.065,6.587-0.064,9.88-0.075c0.014,0,0.028,0,0.042,0c3.293,0.011,6.587,0.01,9.88,0.075l1.04-7.81l0.493-4.79c0.375-3.627-0.104-6.077-1.256-7.921c-1.198-1.788-3.961-3.478-6.184-4.834C152.719,92.615,151.585,92.565,149.979,92.477z"/>
    <path d="M123.047,93.262 l-4.2,0.782l-0.549,2.153c-0.158-0.178-1.907,1.906,0.079,3.217c1.595,1.052,3.63,0.426,5.315,1.325c3.193,1.707,6.459,3.75,8.533,6.719c1.868,2.671,2.145,6.158,3.042,9.293c0.486,1.701,1.745,5.597,1.745,5.597l4.922-1.72 C140.304,105.212,134.95,95.404,123.047,93.262z"/>
    <path d="M176.953,93.262 l4.199,0.782l0.549,2.153c0.158-0.178,1.908,1.906-0.078,3.217c-1.596,1.052-3.631,0.426-5.314,1.325c-3.192,1.707-6.461,3.75-8.533,6.719c-1.868,2.671-2.146,6.158-3.043,9.293c-0.485,1.701-1.744,5.597-1.744,5.597l-4.922-1.72 C159.695,105.212,165.05,95.404,176.953,93.262L176.953,93.262z"/>
    <path d="M143.016,56.24H150"/>
    <path d="M156.984,56.24H150"/>
    <path d="M100.375,93.5c-0.665-0.006-1.324-0.066-1.969-0.22c-9.673-2.283-10.161-20.44,0.188-23.063c1.587-0.402,2.901-0.495,4.188-0.5c-6.981-0.6-7.573-5.08-7.625-7.594c-0.057-2.753,1.551-10.33,11.156-9.031c-5.167-0.475-7.473-4.795-5.813-8.688c1.26-2.956,4.686-8.015,11.125-6.28c-7.799-2.168,1.038-15.052,7.969-8.72c-5.07-3.952,1.551-6.828,5.063-5.5c9.66-3.683,12.085-10.086,9.031-17.719c6.094,0.824,10.638,10.916,0.563,20.531c-4.098,3.91-10.597,7.991-7.125,13.438c1.479,2.32,5.08,1.745,8.156,2.72c4.553,1.439,7.577,7.936,6.875,12.719c-0.839,5.718-7.909,10.267-9.406,7.219c0,0,2.255,0.645,2.063-1.625c-0.275-3.254-2.739-5.914-5.656-7c-8.773-4.271-11.767,4.914-9.219,13.313c2.787,9.184,12.161,16.98,22.656,22.094L117.75,91.5c-3.35-6.501-6.616-16.421-14.594-12.563c-3.933,1.901-1.781,9.656,7.219,6.188C109.842,90.11,105.028,93.536,100.375,93.5z M199.625,93.5c-4.652,0.036-9.467-3.392-10-8.375c9,3.469,11.15-4.286,7.219-6.188c-7.978-3.857-11.244,6.063-14.594,12.563l-24.844-1.906c10.496-5.112,19.869-12.91,22.656-22.094c2.549-8.398-0.445-17.585-9.22-13.313c-2.918,1.086-5.381,3.746-5.655,7c-0.192,2.27,2.063,1.625,2.063,1.625c-1.498,3.048-8.566-1.501-9.406-7.219c-0.701-4.783,2.322-11.278,6.875-12.719c3.076-0.975,6.678-0.398,8.156-2.72c3.473-5.445-3.027-9.526-7.125-13.438c-10.076-9.615-5.531-19.707,0.563-20.531c-3.054,7.633-0.629,14.036,9.031,17.719c3.512-1.328,10.133,1.548,5.063,5.5c6.932-6.332,15.768,6.552,7.969,8.72c6.438-1.733,9.865,3.324,11.125,6.28c1.66,3.894-0.646,8.214-5.813,8.688c9.605-1.299,11.213,6.278,11.156,9.031c-0.052,2.514-0.644,6.994-7.625,7.594c1.287,0.005,2.602,0.098,4.188,0.5c10.348,2.621,9.86,20.778,0.188,23.063 C200.949,93.434,200.289,93.494,199.625,93.5z"/>
    <path fill="none" d="M139.207,10.543c1.235,7.547-2.442,11.172-7.465,13.914c-6.134,3.35-10.94,8.406-14,13.766c-12.106,21.203-3.302,41.264,7.395,52.708"/>
    <path fill="#ff993a" d="M128.667,50.16c-2.072,0.029-4.325,0.854-6.224,2.556c-6.089,5.458-6.4,24.582,7.538,35.189c2.266,2.398,2.689,1.384,5.613,2.216l7.002-0.541c-0.082-0.04-0.162-0.082-0.243-0.122c-10.396-5.113-19.648-12.851-22.414-21.962c-2.548-8.397,0.441-17.571,9.215-13.3c2.917,1.086,5.367,3.743,5.642,6.997c0.192,2.27-2.057,1.633-2.057,1.633c4.45,1.533,3.936-4.882,1.706-9.45 C133.406,51.244,131.167,50.124,128.667,50.16L128.667,50.16z"/>
    <path d="M124.653,23.9c1.057,0.603,2.546,1.804,2.132,3.841"/>
    <path fill="none" d="M160.793,10.543c-1.234,7.547,2.441,11.172,7.465,13.914c6.135,3.35,10.939,8.406,14,13.766c12.106,21.203,3.303,41.264-7.395,52.708"/>
    <path fill="#ff993a" d="M171.333,50.16c2.072,0.029,4.325,0.854,6.224,2.556c6.09,5.458,6.4,24.582-7.537,35.189c-2.267,2.398-2.689,1.384-5.613,2.216l-7.004-0.541c0.082-0.04,0.162-0.082,0.244-0.122c10.396-5.113,19.648-12.851,22.414-21.962c2.547-8.397-0.441-17.571-9.216-13.3c-2.917,1.086-5.366,3.743-5.643,6.997c-0.192,2.27,2.058,1.633,2.058,1.633c-4.451,1.533-3.936-4.882-1.706-9.45 C166.594,51.244,168.832,50.124,171.333,50.16L171.333,50.16z"/>
    <path d="M175.348,23.9c-1.059,0.603-2.547,1.804-2.133,3.841"/>
    <path fill="#ff993a" d="M116.594,96.906c-0.24,0.015-0.479-0.007-0.719-0.03c-4.985-0.513-5.574-7.576-0.875-9c2.39-0.726,4.851-1.193,7.281-1.688c9.075-1.847,18.363-2.938,27.719-2.938c9.355,0,18.645,1.091,27.719,2.938c2.43,0.494,4.893,0.963,7.281,1.688c4.699,1.424,4.109,8.487-0.875,9c-0.479,0.049-0.963,0.026-1.438-0.095c-2.248-0.575-4.521-1.099-6.813-1.563c-8.563-1.735-17.231-2.75-25.875-2.75c-8.643,0-17.311,1.015-25.875,2.75c-2.292,0.464-4.564,0.986-6.813,1.563C117.075,96.842,116.834,96.892,116.594,96.906z"/>
    <path d="M112.871,103.667c0.517,5.799,6.861,6.048,10.455,4.123c0,0,5.252,2.454,8.842,12.066c0.484,1.296,1.016,2.629,1.016,2.629l5.556-2.448c-1.34-4.108-2.968-9.696-4.898-12.904c-3.009-5-6.967-7.751-12.606-8.187C118.137,98.709,112.532,99.865,112.871,103.667z"/>
    <path d="M131.598,111.196c1.688,2.746,3.176,6.067,4.513,9.319"/>
    <path d="M123.326,107.79c0.709-0.438,1.357-1.03,1.954-1.749"/>
    <path d="M150.001,97.398c-0.81,0.045-1.419,0.813-2.031,1.233c-3.186,2.186-4.338,5.521-4.235,8.981c0.121,4.072,2.313,7.542,4.306,11.051c1.667-0.034,0.292,0.002,1.959-0.003c1.667,0.005,0.292-0.031,1.959,0.003c1.992-3.509,4.182-6.979,4.303-11.051c0.104-3.46-1.049-6.797-4.234-8.981C151.418,98.211,150.811,97.443,150.001,97.398z"/>
    <path d="M150,100.656c-0.457,0.037-0.964,0.562-1.236,0.973c-0.979,1.479-2.692,4.588-2.39,6.936c0.267,2.066,1.974,7.156,3.097,10.098c0.348-0.012,0.243-0.008,0.196-0.006c-0.051,0.003-0.02,0.008,0.333,0.006c0.353,0.002,0.383-0.003,0.333-0.006c-0.047-0.002-0.154-0.006,0.192,0.006c1.123-2.94,2.83-8.03,3.098-10.098c0.303-2.348-1.408-5.456-2.387-6.936 C150.965,101.217,150.457,100.694,150,100.656z"/>
    <path d="M187.129,103.667c-0.516,5.799-6.859,6.048-10.455,4.123c0,0-5.252,2.454-8.842,12.066c-0.484,1.296-1.016,2.629-1.016,2.629l-5.557-2.448c1.342-4.108,2.969-9.696,4.898-12.904c3.009-5,6.968-7.751,12.605-8.187C181.863,98.709,187.468,99.865,187.129,103.667 L187.129,103.667z"/>
    <path d="M168.402,111.196c-1.688,2.746-3.176,6.067-4.514,9.319"/>
    <path d="M176.674,107.79c-0.709-0.438-1.355-1.03-1.953-1.749"/>
    <path d="M150,105.968v14.159"/>
    <path fill="#ff993a" d="M130.125,128.469c-0.415,0.01-0.823-0.063-1.219-0.25c-2.09-0.988-3.368-3.583-2.938-5.844c0.334-1.753,2.12-2.881,4.469-3.75c6.408-2.373,13.093-3.281,19.563-3.281 s13.154,0.908,19.563,3.281c2.35,0.869,4.136,1.997,4.47,3.75c0.431,2.261-0.849,4.854-2.938,5.844c-1.584,0.749-3.318-0.346-5.219-1.188c-4.852-1.846-10.32-2.438-15.875-2.438c-5.554,0-11.024,0.592-15.875,2.438 C132.701,127.662,131.37,128.438,130.125,128.469z"/>
  </g>
  <use xlink:href="#elm" transform="rotate(90,150,150)"/>
  <use xlink:href="#elm" transform="rotate(-90,150,150)"/>
  <use xlink:href="#elm" transform="rotate(180,150,150)"/>
  <use xlink:href="#s" fill="#ffe4c4"/>
  <use xlink:href="#s" fill="#ff7900" transform="rotate(120,150,150)"/>
  <use xlink:href="#s" fill="#cb4f00" transform="rotate(-120,150,150)"/>
  <circle fill="none" cx="150" cy="150" r="21.7265"/>
</svg>
